<?xml version="1.0" standalone="no"?>
<!DOCTYPE svg PUBLIC "-//W3C//DTD SVG 1.1//EN" "http://www.w3.org/Graphics/SVG/1.1/DTD/svg11.dtd"><svg t="1680004758864"
    class="icon" viewBox="0 0 1024 1024" version="1.1" xmlns="http://www.w3.org/2000/svg" p-id="1593"
    xmlns:xlink="http://www.w3.org/1999/xlink" width="200" height="200">
    <path
        d="M865.450667 547.157333A35.285333 35.285333 0 0 0 896 512a35.2 35.2 0 0 0-34.901333-35.413333H247.424l221.696-224.042667 3.157333-3.626667a35.84 35.84 0 0 0-3.072-46.506666 34.56 34.56 0 0 0-49.322666-0.085334l-281.6 284.586667-3.114667 3.584a35.669333 35.669333 0 0 0-4.522667 34.986667 34.858667 34.858667 0 0 0 32.256 21.930666h698.197334l4.352-0.256z m-396.202667 274.432a35.84 35.84 0 0 0-0.128-50.133333l-155.306667-156.970667-3.584-3.157333a34.432 34.432 0 0 0-45.738666 3.285333 35.626667 35.626667 0 0 0 0.085333 50.090667l155.306667 157.013333 3.541333 3.114667a34.56 34.56 0 0 0 45.824-3.242667z"
        p-id="1594"></path>
</svg>