<?xml version="1.0" standalone="no"?>
<!DOCTYPE svg PUBLIC "-//W3C//DTD SVG 1.1//EN" "http://www.w3.org/Graphics/SVG/1.1/DTD/svg11.dtd"><svg t="1680004828525"
    class="icon" viewBox="0 0 1024 1024" version="1.1" xmlns="http://www.w3.org/2000/svg" p-id="2433"
    xmlns:xlink="http://www.w3.org/1999/xlink" width="200" height="200">
    <path
        d="M928 733.269333c0.682667 1.237333 1.28 2.56 1.834667 3.84 5.12 12.544 7.978667 25.728 8.704 39.210667a119.850667 119.850667 0 0 1-30.933334 87.04 119.68 119.68 0 0 1-83.456 39.765333H365.226667a32 32 0 0 1 0-64h457.386666c13.44-0.725333 27.349333-7.296 37.546667-18.602666a56.277333 56.277333 0 0 0 11.093333-57.6l-309.333333-541.269334a56.917333 56.917333 0 0 0-77.312-22.528c-9.344 5.12-16.981333 12.8-22.144 22.144L152.874667 762.965333c-4.992 13.568-4.650667 28.288 0.981333 41.642667 5.888 13.952 16.853333 24.746667 30.890667 30.464 5.973333 2.432 12.074667 3.797333 18.432 4.138667a32 32 0 0 1-1.621334 63.957333l-1.621333-0.042667a119.722667 119.722667 0 0 1-39.338667-8.746666 119.936 119.936 0 0 1-65.664-64.853334 119.68 119.68 0 0 1-0.64-92.416 26.368 26.368 0 0 1 1.834667-3.84L406.613333 189.866667a120.746667 120.746667 0 0 1 211.072 0.384l310.272 542.976zM512 580.181333a32 32 0 0 0 32-32v-120.618666a32 32 0 0 0-64 0v120.618666c0 17.664 14.336 32 32 32z m0 145.92a32 32 0 0 0 32-32v-0.426666a31.829333 31.829333 0 0 0-32-31.744 32.213333 32.213333 0 0 0-32 32.213333c0 17.664 14.336 32 32 32z"
        p-id="2434"></path>
</svg>