<?xml version="1.0" standalone="no"?>
<!DOCTYPE svg PUBLIC "-//W3C//DTD SVG 1.1//EN" "http://www.w3.org/Graphics/SVG/1.1/DTD/svg11.dtd"><svg t="1682364788893"
    class="icon" viewBox="0 0 1024 1024" version="1.1" xmlns="http://www.w3.org/2000/svg" p-id="3749"
    xmlns:xlink="http://www.w3.org/1999/xlink" width="200" height="200">
    <path
        d="M202.685454 620.030827a42.65778 42.65778 0 0 0-42.65778 42.65778V981.128931a42.65778 42.65778 0 0 0 85.315559 0V662.688607a42.65778 42.65778 0 0 0-42.657779-42.65778zM408.935818 391.811706a42.65778 42.65778 0 0 0-42.657779 42.65778V981.128931a42.65778 42.65778 0 1 0 85.315559 0V434.469486a42.65778 42.65778 0 0 0-42.65778-42.65778zM614.972894 560.309935a42.65778 42.65778 0 0 0-42.65778 42.65778V981.128931a42.65778 42.65778 0 1 0 85.31556 0V602.967715a42.65778 42.65778 0 0 0-42.65778-42.65778zM821.223258 416.979796a42.65778 42.65778 0 0 0-42.657779 42.65778V981.128931a42.65778 42.65778 0 0 0 85.315559 0V459.637576a42.65778 42.65778 0 0 0-42.65778-42.65778z"
        p-id="3750"></path>
    <path
        d="M1023.847712 23.675068v-1.9196a29.647157 29.647157 0 0 0-3.412623-7.465112 29.220579 29.220579 0 0 0-5.545511-5.972089l-3.412622-1.493022a30.92689 30.92689 0 0 0-7.251823-4.265778 30.500312 30.500312 0 0 0-8.318267-2.559467h-145.24974a31.993335 31.993335 0 0 0 0 63.986669h63.98667L615.186183 365.577171l-183.428453-187.480941a32.633201 32.633201 0 0 0-22.821912-9.598 31.993335 31.993335 0 0 0-22.608623 9.384711L9.445712 554.551135a31.780046 31.780046 0 0 0 0 45.217247 31.993335 31.993335 0 0 0 45.217247 0l354.05957-354.059571 183.428453 187.480941a31.780046 31.780046 0 0 0 22.821912 9.598001 32.419913 32.419913 0 0 0 22.821912-9.384712L959.861042 109.630494v63.986669a31.993335 31.993335 0 1 0 63.98667 0V31.993335a33.912935 33.912935 0 0 0 0-8.318267z"
        p-id="3751"></path>
</svg>