<?xml version="1.0" standalone="no"?>
<!DOCTYPE svg PUBLIC "-//W3C//DTD SVG 1.1//EN" "http://www.w3.org/Graphics/SVG/1.1/DTD/svg11.dtd"><svg t="1680279909149"
    class="icon" viewBox="0 0 1024 1024" version="1.1" xmlns="http://www.w3.org/2000/svg" p-id="2497"
    xmlns:xlink="http://www.w3.org/1999/xlink">
    <path
        d="M678.41064 448.159601A106.400665 106.400665 0 1 1 784.811305 340.482128a106.826268 106.826268 0 0 1-106.400665 107.677473z m0-170.241064A63.840399 63.840399 0 1 0 742.251039 340.482128a63.840399 63.840399 0 0 0-63.840399-62.563591zM678.41064 789.918537a106.400665 106.400665 0 1 1 106.400665-106.400665 106.400665 106.400665 0 0 1-106.400665 106.400665z m0-170.241064a63.840399 63.840399 0 1 0 63.840399 63.840399 63.840399 63.840399 0 0 0-63.840399-63.840399zM343.035744 444.329177a106.400665 106.400665 0 1 1 106.400665-106.400665 106.400665 106.400665 0 0 1-106.400665 106.400665z m0-170.241064a63.840399 63.840399 0 1 0 63.840399 63.840399 63.840399 63.840399 0 0 0-63.840399-63.840399zM343.035744 786.088113a106.400665 106.400665 0 1 1 106.400665-106.400665 106.400665 106.400665 0 0 1-106.400665 106.400665z m0-170.241064A63.840399 63.840399 0 1 0 406.876143 680.964256a63.840399 63.840399 0 0 0-63.840399-65.117207z"
        p-id="2498"></path>
</svg>