<?xml version="1.0" standalone="no"?><!DOCTYPE svg PUBLIC "-//W3C//DTD SVG 1.1//EN" "http://www.w3.org/Graphics/SVG/1.1/DTD/svg11.dtd"><svg t="1682587858931" class="icon" viewBox="0 0 1024 1024" version="1.1" xmlns="http://www.w3.org/2000/svg" p-id="3319" xmlns:xlink="http://www.w3.org/1999/xlink" width="200" height="200"><path d="M958.577476 311.180252c0 15.286148-5.878894 29.522384-16.564257 40.166815L551.623951 741.043556c-1.39272 1.425466-2.577708 2.537799-3.846608 3.449565l-2.905166 2.304486c-11.416004 11.362792-24.848944 16.945951-39.068807 16.945951-14.475689 0-28.010961-5.708002-38.110993-16.056698L79.475588 355.310332c-10.467399-10.613732-16.236799-24.786523-16.236799-39.893592 0-14.772448 5.599532-28.726252 15.753799-39.286772 10.18599-10.497075 24.390503-16.539698 38.95215-16.539698 14.382569 0 28.009937 5.723352 38.366819 16.142655l350.169241 353.968777 359.428116-358.485651c10.30981-10.248412 23.781636-15.909341 37.994336-15.909341 14.889105 0 28.859281 6.05081 39.333844 16.999163C953.126324 282.725176 958.577476 296.556183 958.577476 311.180252z" fill="#272636" p-id="3320"></path></svg>