<?xml version="1.0" standalone="no"?>
<!DOCTYPE svg PUBLIC "-//W3C//DTD SVG 1.1//EN" "http://www.w3.org/Graphics/SVG/1.1/DTD/svg11.dtd"><svg t="1685009508761"
    class="icon" viewBox="0 0 1024 1024" version="1.1" xmlns="http://www.w3.org/2000/svg" p-id="2343"
    xmlns:xlink="http://www.w3.org/1999/xlink" width="200" height="200">
    <path
        d="M684.373333 955.733333a17.066667 17.066667 0 0 1-17.066666-17.066666V685.226667c0-0.7168 0.0512-1.4336 0.136533-2.133334a17.681067 17.681067 0 0 1-0.136533-2.133333v-38.4l0.017066-0.5632L667.306667 170.666667c0-47.223467-21.0432-68.266667-68.266667-68.266667h-341.333333c-47.223467 0-68.266667 21.0432-68.266667 68.266667v768a17.066667 17.066667 0 1 1-34.133333 0V170.666667c0-66.030933 36.369067-102.4 102.4-102.4h341.333333c66.030933 0 102.4 36.369067 102.4 102.4v68.266666h68.266667a17.066667 17.066667 0 1 1 0 34.133334h-68.266667v369.493333c1.006933 29.934933 11.9296 55.1936 33.399467 76.663467 21.333333 21.316267 46.421333 31.675733 76.680533 31.675733s55.3472-10.359467 76.680533-31.675733c21.333333-21.333333 31.6928-46.421333 31.6928-76.663467 0-14.199467-2.474667-27.579733-7.3216-39.765333a169.864533 169.864533 0 0 0-19.370666-35.6352l-137.915734-216.661334a17.066667 17.066667 0 1 1 28.808534-18.3296l137.403733 215.893334c8.7552 12.202667 16.5888 26.606933 22.784 42.069333 6.468267 16.247467 9.745067 33.877333 9.745067 52.4288 0 39.2192-14.0288 73.130667-41.693867 100.795733-27.682133 27.665067-61.5936 41.6768-100.8128 41.6768s-73.130667-14.011733-100.8128-41.6768a160.034133 160.034133 0 0 1-9.2672-10.0864V938.666667a17.066667 17.066667 0 0 1-17.066667 17.066666z m-85.333333-512h-341.333333a17.066667 17.066667 0 0 1-17.066667-17.066666V170.666667a17.066667 17.066667 0 0 1 17.066667-17.066667h341.333333a17.066667 17.066667 0 0 1 17.066667 17.066667v256a17.066667 17.066667 0 0 1-17.066667 17.066666z m-324.266667-34.133333h307.2V187.733333h-307.2v221.866667z"
        p-id="2344" fill="#5E2D9C"></path>
    <path
        d="M769.706667 972.8h-682.666667a34.133333 34.133333 0 0 1 0-68.266667h682.666667a34.133333 34.133333 0 0 1 0 68.266667z m0-597.333333a34.133333 34.133333 0 0 1-34.133334-34.133334V170.666667a34.133333 34.133333 0 0 1 68.266667 0v170.666666a34.133333 34.133333 0 0 1-34.133333 34.133334z"
        p-id="2345" fill="#5E2D9C"></path>
</svg>