<?xml version="1.0" standalone="no"?>
<!DOCTYPE svg PUBLIC "-//W3C//DTD SVG 1.1//EN" "http://www.w3.org/Graphics/SVG/1.1/DTD/svg11.dtd"><svg t="1680004837878"
    class="icon" viewBox="0 0 1024 1024" version="1.1" xmlns="http://www.w3.org/2000/svg" p-id="2647"
    xmlns:xlink="http://www.w3.org/1999/xlink" width="200" height="200">
    <path
        d="M747.52 119.594667a264.874667 264.874667 0 0 1 158.506667 136.106666 337.066667 337.066667 0 0 1 14.336 254.293334 534.101333 534.101333 0 0 1-126.506667 203.306666 1018.282667 1018.282667 0 0 1-120.106667 105.472l-2.261333 1.92a30.890667 30.890667 0 0 1-42.922667-8.448 31.914667 31.914667 0 0 1 7.552-44.501333 995.626667 995.626667 0 0 0 112.938667-99.328 467.072 467.072 0 0 0 112.938667-178.346667 270.72 270.72 0 0 0-12.8-204.8 203.946667 203.946667 0 0 0-121.6-104.32 215.125333 215.125333 0 0 0-196.906667 34.901334 31.146667 31.146667 0 0 1-37.632 0 214.741333 214.741333 0 0 0-196.906667-34.901334 203.861333 203.861333 0 0 0-122.709333 103.936 273.066667 273.066667 0 0 0-12.074667 204.032A468.522667 468.522667 0 0 0 274.346667 666.88a1409.578667 1409.578667 0 0 0 245.461333 191.786667c11.264 7.936 16.213333 22.357333 12.288 35.712a31.701333 31.701333 0 0 1-29.610667 22.954666 30.122667 30.122667 0 0 1-17.28-5.376 1463.68 1463.68 0 0 1-255.658666-199.808 527.530667 527.530667 0 0 1-126.848-203.264 338.986667 338.986667 0 0 1 15.786666-253.141333 264.874667 264.874667 0 0 1 158.506667-136.149333 280.106667 280.106667 0 0 1 235.306667 31.445333 280.106667 280.106667 0 0 1 235.306666-31.445333z m-30.848 293.76a84.138667 84.138667 0 0 0-57.984-76.672 32.512 32.512 0 0 1-13.269333-37.418667 31.616 31.616 0 0 1 32.469333-22.058667 147.882667 147.882667 0 0 1 101.290667 128.512 31.872 31.872 0 0 1-6.314667 23.381334 30.72 30.72 0 0 1-20.821333 11.861333 31.744 31.744 0 0 1-35.370667-27.605333z"
        p-id="2648"></path>
</svg>