<?xml version="1.0" standalone="no"?>
<!DOCTYPE svg PUBLIC "-//W3C//DTD SVG 1.1//EN" "http://www.w3.org/Graphics/SVG/1.1/DTD/svg11.dtd"><svg t="1680004844653"
    class="icon" viewBox="0 0 1024 1024" version="1.1" xmlns="http://www.w3.org/2000/svg" p-id="2849"
    xmlns:xlink="http://www.w3.org/1999/xlink" width="200" height="200">
    <path
        d="M85.333333 512C85.333333 276.693333 276.736 85.333333 512 85.333333s426.666667 191.36 426.666667 426.666667c0 235.264-191.402667 426.666667-426.666667 426.666667a424.106667 424.106667 0 0 1-338.218667-166.485334 31.018667 31.018667 0 1 1 49.152-37.888A362.368 362.368 0 0 0 512 876.629333c201.045333 0 364.629333-163.541333 364.629333-364.629333 0-201.045333-163.584-364.629333-364.629333-364.629333S147.370667 310.954667 147.370667 512c0 18.688 1.408 37.248 4.181333 55.424a31.061333 31.061333 0 0 1-61.312 9.386667A430.933333 430.933333 0 0 1 85.333333 511.957333z m426.666667-193.962667a32 32 0 0 0-32 32v188.586667a32 32 0 0 0 64 0v-188.586667a32 32 0 0 0-32-32z m0.426667 323.925334H512a31.829333 31.829333 0 0 0-31.786667 32c0 17.664 14.549333 32 32.213334 32a32 32 0 0 0 0-64z"
        p-id="2850"></path>
</svg>