<svg width="128" height="128" viewBox="0 0 128 128" fill="none" xmlns="http://www.w3.org/2000/svg">
    <rect width="128" height="128" rx="32" fill="url(#paint0_linear_2_2)" />
    <circle cx="74" cy="57" r="2" fill="#9747FF" />
    <circle cx="56" cy="49" r="4" fill="#9747FF" />
    <path
        d="M57.2386 50H56.8054V49.5526C56.8054 49.2661 56.7634 49.0264 56.6793 48.8335C56.5953 48.6405 56.4781 48.4955 56.3278 48.3984C56.1774 48.3014 56.0028 48.2528 55.804 48.2528C55.6146 48.2528 55.4441 48.3014 55.2926 48.3984C55.1423 48.4955 55.0227 48.6405 54.9339 48.8335C54.8464 49.0264 54.8026 49.2661 54.8026 49.5526V50H54.3693V49.5526C54.3693 49.1951 54.4303 48.8873 54.5522 48.6293C54.6753 48.3712 54.8446 48.1729 55.06 48.0344C55.2766 47.896 55.5246 47.8267 55.804 47.8267C56.0928 47.8267 56.3443 47.896 56.5586 48.0344C56.774 48.1729 56.9409 48.3712 57.0593 48.6293C57.1789 48.8873 57.2386 49.1951 57.2386 49.5526V50ZM56.0241 47.2727V50H55.5838V47.2727H56.0241Z"
        fill="white" />
    <circle cx="39" cy="67" r="4" fill="#9747FF" />
    <path
        d="M37.0523 68.2V65.2909H37.4045V66.7341H37.4386L38.7455 65.2909H39.2057L37.9841 66.6034L39.2057 68.2H38.7795L37.7682 66.8477L37.4045 67.2568V68.2H37.0523ZM40.3424 68.2455C40.1379 68.2455 39.9617 68.1972 39.814 68.1006C39.6663 68.004 39.5526 67.8709 39.4731 67.7014C39.3935 67.5319 39.3538 67.3383 39.3538 67.1205C39.3538 66.8989 39.3945 66.7033 39.4759 66.5338C39.5583 66.3633 39.6729 66.2303 39.8197 66.1347C39.9674 66.0381 40.1397 65.9898 40.3367 65.9898C40.4901 65.9898 40.6284 66.0182 40.7515 66.075C40.8746 66.1318 40.9754 66.2114 41.054 66.3136C41.1326 66.4159 41.1814 66.5352 41.2004 66.6716H40.8651C40.8396 66.5722 40.7827 66.4841 40.6947 66.4074C40.6075 66.3297 40.4901 66.2909 40.3424 66.2909C40.2117 66.2909 40.0971 66.325 39.9986 66.3932C39.9011 66.4604 39.8249 66.5556 39.77 66.6787C39.716 66.8008 39.689 66.9443 39.689 67.1091C39.689 67.2776 39.7155 67.4244 39.7685 67.5494C39.8225 67.6744 39.8983 67.7715 39.9958 67.8406C40.0943 67.9098 40.2098 67.9443 40.3424 67.9443C40.4295 67.9443 40.5086 67.9292 40.5796 67.8989C40.6506 67.8686 40.7108 67.825 40.76 67.7682C40.8093 67.7114 40.8443 67.6432 40.8651 67.5636H41.2004C41.1814 67.6924 41.1345 67.8084 41.0597 67.9116C40.9859 68.0139 40.8879 68.0954 40.7657 68.156C40.6445 68.2156 40.5034 68.2455 40.3424 68.2455ZM40.0356 65.1432L40.331 65.5409L40.6265 65.1432H40.9447V65.1659L40.4844 65.7568H40.1776L39.7174 65.1659V65.1432H40.0356Z"
        fill="white" />
    <circle cx="35.5" cy="54.5" r="2.5" fill="#9747FF" />
    <circle cx="38.5" cy="45.5" r="1.5" fill="#9747FF" />
    <circle cx="85.5" cy="54.5" r="1.5" fill="#9747FF" />
    <circle cx="95.5" cy="57.5" r="1.5" fill="#9747FF" />
    <circle cx="94.5" cy="54.5" r="1.5" fill="#9747FF" />
    <circle cx="77.5" cy="55.5" r="1.5" fill="#9747FF" />
    <circle cx="69.5" cy="54.5" r="1.5" fill="#9747FF" />
    <circle cx="62.5" cy="66.5" r="1.5" fill="#9747FF" />
    <circle cx="84.5" cy="48.5" r="1.5" fill="#9747FF" />
    <circle cx="86.5" cy="64.5" r="1.5" fill="#9747FF" />
    <circle cx="98.5" cy="67.5" r="1.5" fill="#9747FF" />
    <circle cx="65.5" cy="80.5" r="10.5" transform="rotate(-180 65.5 80.5)" fill="url(#paint1_linear_2_2)" />
    <path
        d="M66.7102 80.5966H65.7727V75.7727H66.7102V80.5966ZM64.8864 80.5966H63.9489V75.7727H64.8864V80.5966ZM61.8864 84.5V83.5625H68.7045V84.5H61.8864ZM65.3636 84.2273C64.6761 84.2273 64.071 84.0582 63.5483 83.7202C63.0256 83.3793 62.6179 82.919 62.3253 82.3395C62.0327 81.7571 61.8864 81.1023 61.8864 80.375C61.8864 79.642 62.0327 79.0071 62.3253 78.4702C62.6179 77.9304 63.0227 77.5142 63.5398 77.2216C64.0568 76.9261 64.6534 76.7784 65.3295 76.7784C66.017 76.7784 66.6207 76.9318 67.1406 77.2386C67.6605 77.5455 68.0653 77.9844 68.3551 78.5554C68.6449 79.1264 68.7898 79.8068 68.7898 80.5966H67.733C67.733 79.9602 67.6293 79.4332 67.4219 79.0156C67.2173 78.5952 66.9332 78.2827 66.5696 78.0781C66.2088 77.8707 65.7955 77.767 65.3295 77.767C64.8864 77.767 64.483 77.8707 64.1193 78.0781C63.7557 78.2855 63.4659 78.5966 63.25 79.0114C63.0341 79.4261 62.9261 79.9432 62.9261 80.5625C62.9261 81.142 63.0298 81.6577 63.2372 82.1094C63.4446 82.5611 63.7486 82.9162 64.1491 83.1747C64.5497 83.4332 65.0398 83.5625 65.6193 83.5625L65.3636 84.2273ZM63.1818 83.5625L63.2159 83.4602H63.4716L63.4375 83.5625H63.1818Z"
        fill="white" />
    <circle cx="48.5" cy="36.5" r="10.5" fill="url(#paint2_linear_2_2)" />
    <path
        d="M50.2557 35.358L49.8636 36.2102H44.3068L44.6136 35.358H50.2557ZM49.5227 37.0625L49.1307 37.9148H44.3068L44.6136 37.0625H49.5227ZM51.2614 33.0568L50.8523 33.9432C50.6705 33.7784 50.4787 33.6364 50.277 33.517C50.0753 33.3977 49.8636 33.3054 49.642 33.2401C49.4205 33.1747 49.1875 33.142 48.9432 33.142C48.4602 33.142 48.0256 33.2756 47.6392 33.5426C47.2528 33.8097 46.9474 34.2031 46.723 34.723C46.4986 35.2429 46.3864 35.8807 46.3864 36.6364C46.3864 37.392 46.4986 38.0298 46.723 38.5497C46.9474 39.0696 47.2528 39.4631 47.6392 39.7301C48.0256 39.9972 48.4602 40.1307 48.9432 40.1307C49.1932 40.1307 49.429 40.098 49.6506 40.0327C49.875 39.9673 50.0838 39.8778 50.277 39.7642C50.473 39.6506 50.6534 39.5227 50.8182 39.3807L51.2443 40.267C50.946 40.5483 50.5966 40.7614 50.196 40.9062C49.7955 41.0483 49.3778 41.1193 48.9432 41.1193C48.2443 41.1193 47.625 40.9375 47.0852 40.5739C46.5483 40.2102 46.1264 39.6932 45.8196 39.0227C45.5156 38.3523 45.3636 37.5568 45.3636 36.6364C45.3636 35.7159 45.5156 34.9205 45.8196 34.25C46.1264 33.5795 46.5483 33.0625 47.0852 32.6989C47.625 32.3352 48.2443 32.1534 48.9432 32.1534C49.3949 32.1534 49.8168 32.2315 50.2088 32.3878C50.6037 32.544 50.9545 32.767 51.2614 33.0568Z"
        fill="white" />
    <circle cx="81.5" cy="36.5" r="10.5" fill="url(#paint3_linear_2_2)" />
    <path
        d="M81.4773 42.0909V31.1818H82.1761V42.0909H81.4773ZM83.8295 34.4545C83.7784 34.0227 83.571 33.6875 83.2074 33.4489C82.8438 33.2102 82.3977 33.0909 81.8693 33.0909C81.483 33.0909 81.1449 33.1534 80.8551 33.2784C80.5682 33.4034 80.3438 33.5753 80.1818 33.794C80.0227 34.0128 79.9432 34.2614 79.9432 34.5398C79.9432 34.7727 79.9986 34.973 80.1094 35.1406C80.223 35.3054 80.3679 35.4432 80.544 35.554C80.7202 35.6619 80.9048 35.7514 81.098 35.8224C81.2912 35.8906 81.4688 35.946 81.6307 35.9886L82.517 36.2273C82.7443 36.2869 82.9972 36.3693 83.2756 36.4744C83.5568 36.5795 83.8253 36.723 84.081 36.9048C84.3395 37.0838 84.5526 37.3139 84.7202 37.5952C84.8878 37.8764 84.9716 38.2216 84.9716 38.6307C84.9716 39.1023 84.848 39.5284 84.6009 39.9091C84.3565 40.2898 83.9986 40.5923 83.527 40.8168C83.0582 41.0412 82.4886 41.1534 81.8182 41.1534C81.1932 41.1534 80.652 41.0526 80.1946 40.8509C79.7401 40.6491 79.3821 40.3679 79.1207 40.0071C78.8622 39.6463 78.7159 39.2273 78.6818 38.75H79.7727C79.8011 39.0795 79.9119 39.3523 80.1051 39.5682C80.3011 39.7812 80.5483 39.9403 80.8466 40.0455C81.1477 40.1477 81.4716 40.1989 81.8182 40.1989C82.2216 40.1989 82.5838 40.1335 82.9048 40.0028C83.2259 39.8693 83.4801 39.6847 83.6676 39.4489C83.8551 39.2102 83.9489 38.9318 83.9489 38.6136C83.9489 38.3239 83.8679 38.0881 83.706 37.9062C83.544 37.7244 83.331 37.5767 83.0668 37.4631C82.8026 37.3494 82.517 37.25 82.2102 37.1648L81.1364 36.858C80.4545 36.6619 79.9148 36.3821 79.517 36.0185C79.1193 35.6548 78.9205 35.179 78.9205 34.5909C78.9205 34.1023 79.0526 33.6761 79.3168 33.3125C79.5838 32.946 79.9418 32.6619 80.3906 32.4602C80.8423 32.2557 81.3466 32.1534 81.9034 32.1534C82.4659 32.1534 82.9659 32.2543 83.4034 32.456C83.8409 32.6548 84.1875 32.9276 84.4432 33.2741C84.7017 33.6207 84.8381 34.0142 84.8523 34.4545H83.8295Z"
        fill="white" />
    <circle cx="96.5" cy="62.5" r="2.5" fill="#9747FF" />
    <circle cx="81.5" cy="52.5" r="2.5" fill="#9747FF" />
    <circle cx="79.5" cy="48.5" r="1.5" fill="#9747FF" />
    <circle cx="48.5" cy="50.5" r="2.5" fill="#9747FF" />
    <circle cx="37.5" cy="59.5" r="2.5" fill="#9747FF" />
    <circle cx="91.5" cy="61.5" r="2.5" fill="#9747FF" />
    <circle cx="52.5" cy="53.5" r="1.5" fill="#9747FF" />
    <circle cx="58.5" cy="58.5" r="1.5" fill="#9747FF" />
    <circle cx="60.5" cy="54.5" r="1.5" fill="#9747FF" />
    <circle cx="56" cy="55" r="2" fill="#9747FF" />
    <path
        d="M55.9395 55.9818V54.1636H56.056V55.9818H55.9395ZM56.3316 54.7091C56.3231 54.6371 56.2885 54.5812 56.2279 54.5415C56.1673 54.5017 56.093 54.4818 56.0049 54.4818C55.9405 54.4818 55.8841 54.4922 55.8359 54.5131C55.788 54.5339 55.7506 54.5625 55.7236 54.599C55.6971 54.6355 55.6839 54.6769 55.6839 54.7233C55.6839 54.7621 55.6931 54.7955 55.7116 54.8234C55.7305 54.8509 55.7547 54.8739 55.784 54.8923C55.8134 54.9103 55.8441 54.9252 55.8763 54.9371C55.9085 54.9484 55.9381 54.9577 55.9651 54.9648L56.1128 55.0045C56.1507 55.0145 56.1929 55.0282 56.2393 55.0457C56.2861 55.0633 56.3309 55.0872 56.3735 55.1175C56.4166 55.1473 56.4521 55.1857 56.48 55.2325C56.508 55.2794 56.5219 55.3369 56.5219 55.4051C56.5219 55.4837 56.5013 55.5547 56.4601 55.6182C56.4194 55.6816 56.3598 55.7321 56.2812 55.7695C56.203 55.8069 56.1081 55.8256 55.9964 55.8256C55.8922 55.8256 55.802 55.8088 55.7258 55.7751C55.65 55.7415 55.5904 55.6946 55.5468 55.6345C55.5037 55.5744 55.4793 55.5045 55.4736 55.425H55.6555C55.6602 55.4799 55.6787 55.5254 55.7109 55.5614C55.7435 55.5969 55.7847 55.6234 55.8344 55.6409C55.8846 55.658 55.9386 55.6665 55.9964 55.6665C56.0636 55.6665 56.124 55.6556 56.1775 55.6338C56.231 55.6116 56.2734 55.5808 56.3046 55.5415C56.3359 55.5017 56.3515 55.4553 56.3515 55.4023C56.3515 55.354 56.338 55.3147 56.311 55.2844C56.284 55.2541 56.2485 55.2294 56.2045 55.2105C56.1604 55.1916 56.1128 55.175 56.0617 55.1608L55.8827 55.1097C55.7691 55.077 55.6791 55.0303 55.6128 54.9697C55.5466 54.9091 55.5134 54.8298 55.5134 54.7318C55.5134 54.6504 55.5354 54.5794 55.5795 54.5187C55.624 54.4577 55.6836 54.4103 55.7584 54.3767C55.8337 54.3426 55.9178 54.3256 56.0106 54.3256C56.1043 54.3256 56.1877 54.3424 56.2606 54.376C56.3335 54.4091 56.3913 54.4546 56.4339 54.5124C56.477 54.5701 56.4997 54.6357 56.502 54.7091H56.3316Z"
        fill="white" />
    <circle cx="62" cy="58" r="2" fill="#9747FF" />
    <circle cx="99.5" cy="80.5" r="10.5" transform="rotate(-180 99.5 80.5)" fill="url(#paint4_linear_2_2)" />
    <path
        d="M102.562 85H96.7841V84.0625H102.562V85ZM100.722 81.608H96.75V80.6364H100.722V81.608ZM98.608 78.9148L98.7443 82.6136C98.7614 82.9716 98.7287 83.3026 98.6463 83.6065C98.5668 83.9077 98.4119 84.1392 98.1818 84.3011L97.125 84.0625C97.2955 84.0625 97.4261 83.9773 97.517 83.8068C97.608 83.6364 97.669 83.4375 97.7003 83.2102C97.7315 82.983 97.7443 82.7841 97.7386 82.6136L97.6193 78.9148C97.5966 78.2955 97.7088 77.7812 97.956 77.3722C98.206 76.9631 98.5327 76.6577 98.9361 76.456C99.3423 76.2543 99.767 76.1534 100.21 76.1534C100.616 76.1534 100.986 76.2273 101.318 76.375C101.651 76.5199 101.93 76.7159 102.158 76.9631C102.385 77.2102 102.544 77.4886 102.635 77.7983C102.726 78.1051 102.73 78.4205 102.648 78.7443L101.659 78.4716C101.699 78.1761 101.653 77.9261 101.523 77.7216C101.395 77.5142 101.216 77.358 100.986 77.2528C100.759 77.1449 100.517 77.0909 100.261 77.0909C99.9886 77.0909 99.7259 77.1562 99.473 77.2869C99.2202 77.4148 99.0128 77.6136 98.8509 77.8835C98.6889 78.1506 98.608 78.4943 98.608 78.9148Z"
        fill="white" />
    <circle cx="41" cy="51" r="4" fill="#9747FF" />
    <path
        d="M40.9716 49.0909V52L40.6193 52.0227V49.0909H40.9716ZM41.767 50.7273H42.1193C42.1193 51.0265 42.0715 51.2732 41.9759 51.4673C41.8812 51.6605 41.7472 51.8045 41.5739 51.8991C41.4015 51.9929 41.1989 52.0398 40.9659 52.0398C40.9063 52.0398 40.8433 52.0384 40.777 52.0355C40.7116 52.0327 40.6591 52.0284 40.6193 52.0227L40.9659 51.7102C41.1136 51.7102 41.2481 51.6804 41.3693 51.6207C41.4905 51.5611 41.5871 51.4598 41.6591 51.3168C41.7311 51.1738 41.767 50.9773 41.767 50.7273ZM41.5795 49.3125V49.6648L40.1932 50.3011V49.9489L41.5795 49.3125ZM41.5795 49.9773V50.3295L40.1932 50.9659V50.6136L41.5795 49.9773Z"
        fill="white" />
    <circle cx="57" cy="68" r="4" fill="#9747FF" />
    <path
        d="M55.3523 69V66.0909H57.0966V66.4034H55.7045V67.3864H56.9659V67.6989H55.7045V69H55.3523ZM58.6033 66.8182V67.1023H57.4727V66.8182H58.6033ZM57.8022 66.2955H58.1374V68.375C58.1374 68.4697 58.1512 68.5407 58.1786 68.5881C58.207 68.6345 58.243 68.6657 58.2866 68.6818C58.3311 68.697 58.378 68.7045 58.4272 68.7045C58.4641 68.7045 58.4944 68.7027 58.5181 68.6989C58.5418 68.6941 58.5607 68.6903 58.5749 68.6875L58.6431 68.9886C58.6204 68.9972 58.5887 69.0057 58.5479 69.0142C58.5072 69.0237 58.4556 69.0284 58.3931 69.0284C58.2984 69.0284 58.2056 69.008 58.1147 68.9673C58.0247 68.9266 57.9499 68.8646 57.8903 68.7812C57.8316 68.6979 57.8022 68.5928 57.8022 68.4659V66.2955Z"
        fill="white" />
    <circle cx="85.5" cy="59.5" r="2.5" fill="#9747FF" />
    <path
        d="M85.3693 60.7727V58.0455H85.544V60.7727H85.3693ZM85.9574 58.8636C85.9446 58.7557 85.8928 58.6719 85.8018 58.6122C85.7109 58.5526 85.5994 58.5227 85.4673 58.5227C85.3707 58.5227 85.2862 58.5384 85.2138 58.5696C85.142 58.6009 85.0859 58.6438 85.0455 58.6985C85.0057 58.7532 84.9858 58.8153 84.9858 58.8849C84.9858 58.9432 84.9996 58.9933 85.0273 59.0352C85.0558 59.0763 85.092 59.1108 85.136 59.1385C85.18 59.1655 85.2262 59.1879 85.2745 59.2056C85.3228 59.2227 85.3672 59.2365 85.4077 59.2472L85.6293 59.3068C85.6861 59.3217 85.7493 59.3423 85.8189 59.3686C85.8892 59.3949 85.9563 59.4308 86.0202 59.4762C86.0849 59.521 86.1381 59.5785 86.18 59.6488C86.2219 59.7191 86.2429 59.8054 86.2429 59.9077C86.2429 60.0256 86.212 60.1321 86.1502 60.2273C86.0891 60.3224 85.9996 60.3981 85.8817 60.4542C85.7646 60.5103 85.6222 60.5384 85.4545 60.5384C85.2983 60.5384 85.163 60.5131 85.0487 60.4627C84.935 60.4123 84.8455 60.342 84.7802 60.2518C84.7156 60.1616 84.679 60.0568 84.6705 59.9375H84.9432C84.9503 60.0199 84.978 60.0881 85.0263 60.142C85.0753 60.1953 85.1371 60.2351 85.2116 60.2614C85.2869 60.2869 85.3679 60.2997 85.4545 60.2997C85.5554 60.2997 85.646 60.2834 85.7262 60.2507C85.8065 60.2173 85.87 60.1712 85.9169 60.1122C85.9638 60.0526 85.9872 59.983 85.9872 59.9034C85.9872 59.831 85.967 59.772 85.9265 59.7266C85.886 59.6811 85.8327 59.6442 85.7667 59.6158C85.7006 59.5874 85.6293 59.5625 85.5526 59.5412L85.2841 59.4645C85.1136 59.4155 84.9787 59.3455 84.8793 59.2546C84.7798 59.1637 84.7301 59.0447 84.7301 58.8977C84.7301 58.7756 84.7631 58.669 84.8292 58.5781C84.896 58.4865 84.9854 58.4155 85.0977 58.3651C85.2106 58.3139 85.3366 58.2884 85.4759 58.2884C85.6165 58.2884 85.7415 58.3136 85.8509 58.364C85.9602 58.4137 86.0469 58.4819 86.1108 58.5685C86.1754 58.6552 86.2095 58.7536 86.2131 58.8636H85.9574Z"
        fill="white" />
    <circle cx="33" cy="61" r="2" fill="#9747FF" />
    <path
        d="M32.8795 61.9818V60.1636H32.996V61.9818H32.8795ZM33.2716 60.7091C33.2631 60.6371 33.2285 60.5812 33.1679 60.5415C33.1073 60.5017 33.033 60.4818 32.9449 60.4818C32.8805 60.4818 32.8242 60.4922 32.7759 60.5131C32.728 60.5339 32.6906 60.5625 32.6636 60.599C32.6371 60.6355 32.6239 60.6769 32.6239 60.7233C32.6239 60.7621 32.6331 60.7955 32.6516 60.8234C32.6705 60.8509 32.6947 60.8739 32.724 60.8923C32.7534 60.9103 32.7841 60.9252 32.8163 60.9371C32.8485 60.9484 32.8781 60.9577 32.9051 60.9648L33.0528 61.0045C33.0907 61.0145 33.1329 61.0282 33.1793 61.0457C33.2261 61.0633 33.2709 61.0872 33.3135 61.1175C33.3566 61.1473 33.3921 61.1857 33.42 61.2325C33.448 61.2794 33.4619 61.3369 33.4619 61.4051C33.4619 61.4837 33.4413 61.5547 33.4001 61.6182C33.3594 61.6816 33.2998 61.7321 33.2212 61.7695C33.143 61.8069 33.0481 61.8256 32.9364 61.8256C32.8322 61.8256 32.742 61.8088 32.6658 61.7751C32.59 61.7415 32.5304 61.6946 32.4868 61.6345C32.4437 61.5744 32.4193 61.5045 32.4136 61.425H32.5955C32.6002 61.4799 32.6187 61.5254 32.6509 61.5614C32.6835 61.5969 32.7247 61.6234 32.7744 61.6409C32.8246 61.658 32.8786 61.6665 32.9364 61.6665C33.0036 61.6665 33.064 61.6556 33.1175 61.6338C33.171 61.6116 33.2134 61.5808 33.2446 61.5415C33.2759 61.5017 33.2915 61.4553 33.2915 61.4023C33.2915 61.354 33.278 61.3147 33.251 61.2844C33.224 61.2541 33.1885 61.2294 33.1445 61.2105C33.1004 61.1916 33.0528 61.175 33.0017 61.1608L32.8227 61.1097C32.7091 61.077 32.6191 61.0303 32.5528 60.9697C32.4866 60.9091 32.4534 60.8298 32.4534 60.7318C32.4534 60.6504 32.4754 60.5794 32.5195 60.5187C32.564 60.4577 32.6236 60.4103 32.6984 60.3767C32.7737 60.3426 32.8578 60.3256 32.9506 60.3256C33.0443 60.3256 33.1277 60.3424 33.2006 60.376C33.2735 60.4091 33.3313 60.4546 33.3739 60.5124C33.417 60.5701 33.4397 60.6357 33.442 60.7091H33.2716Z"
        fill="white" />
    <circle cx="30.5" cy="79.5" r="10.5" transform="rotate(-180 30.5 79.5)" fill="url(#paint5_linear_2_2)" />
    <path
        d="M28.3466 75.2727L30.5795 80.1307L29.7614 80.4716L27.1705 75.2727H28.3466ZM30 80.1307L32.233 75.2727H33.4091L30.8182 80.4716L30 80.1307ZM30.8182 79.4148V84H29.7614V79.4148H30.8182ZM32.7273 79.6534V80.4205H27.8523V79.6534H32.7273ZM32.7273 81.3409V82.108H27.8523V81.3409H32.7273Z"
        fill="white" />
    <circle cx="31.5" cy="66.5" r="2.5" fill="#9747FF" />
    <circle cx="74" cy="50" r="4" fill="#9747FF" />
    <path
        d="M75.5639 49.223L75.4432 49.6349H73.142L73.2628 49.223H75.5639ZM74.4844 52L73.1847 50.4091L73.1776 50.1108H73.8239C73.992 50.1108 74.1352 50.0871 74.2536 50.0398C74.3719 49.9912 74.4625 49.919 74.5252 49.8232C74.5879 49.7261 74.6193 49.6042 74.6193 49.4574C74.6193 49.2408 74.5542 49.0709 74.424 48.9478C74.2938 48.8235 74.0938 48.7614 73.8239 48.7614H73.142L73.2628 48.3636H73.8239C74.1127 48.3636 74.3494 48.4116 74.5341 48.5075C74.7199 48.6022 74.8572 48.7324 74.946 48.8981C75.036 49.0626 75.081 49.2491 75.081 49.4574C75.081 49.6456 75.0395 49.819 74.9567 49.9776C74.875 50.1351 74.7436 50.2617 74.5625 50.3576C74.3826 50.4535 74.1446 50.5014 73.8487 50.5014H73.8381L75.0384 51.9716V52H74.4844ZM75.5639 48.3636L75.4432 48.7756L73.6321 48.7614L73.7528 48.3636H75.5639Z"
        fill="white" />
    <circle cx="73" cy="68" r="4" fill="#9747FF" />
    <path
        d="M71.4403 66.2727H72.8182C73.1094 66.2727 73.3266 66.3443 73.4698 66.4876C73.613 66.6308 73.6847 66.848 73.6847 67.1392V68.1193H73.2443V67.1392C73.2443 66.9759 73.2106 66.8557 73.1431 66.7788C73.0756 66.7018 72.9673 66.6634 72.8182 66.6634H71.8807V69H71.4403V66.2727ZM72.3423 69V67.1534H72.7827V68.6094H73.7202C73.8693 68.6094 73.9776 68.5709 74.0451 68.494C74.1126 68.417 74.1463 68.2969 74.1463 68.1335V66.3011H74.5866V68.1335C74.5866 68.4247 74.515 68.6419 74.3718 68.7852C74.2286 68.9284 74.0114 69 73.7202 69H72.3423Z"
        fill="white" />
    <circle cx="69" cy="61" r="4" fill="#9747FF" />
    <path
        d="M70.6875 60.0795V60.392H67.108V60.0795H70.6875ZM70.6875 60.7614V61.0739H67.108V60.7614H70.6875ZM67.4432 59.0909L68.0511 61.4602H68.0795L68.6989 59.0909H69.0966L69.7159 61.4602H69.7443L70.3523 59.0909H70.7102L69.9148 62H69.5511L68.9091 59.6818H68.8864L68.2443 62H67.8807L67.0852 59.0909H67.4432Z"
        fill="white" />
    <circle cx="91" cy="68" r="4" fill="#9747FF" />
    <path
        d="M90.4403 70V66.3636H92.6207V66.7543H90.8807V67.983H92.4574V68.3736H90.8807V70H90.4403ZM89.8793 69.3111V68.9844H91.4418V69.3111H89.8793Z"
        fill="white" />
    <circle cx="90" cy="49" r="4" fill="#9747FF" />
    <path
        d="M89.9006 47.0455C89.6406 47.0455 89.4517 47.1044 89.3338 47.2223C89.2173 47.3388 89.1591 47.4929 89.1591 47.6847H88.5881C88.5881 47.4915 88.6307 47.3111 88.7159 47.1435C88.8011 46.9744 88.9396 46.8381 89.1314 46.7344C89.3232 46.6293 89.5795 46.5767 89.9006 46.5767C90.1648 46.5767 90.3892 46.6151 90.5739 46.6918C90.7599 46.7685 90.9013 46.8821 90.9979 47.0327C91.0959 47.1832 91.1449 47.3693 91.1449 47.5909C91.1449 47.6733 91.1342 47.7557 91.1129 47.8381C91.0916 47.9205 91.0582 47.9993 91.0128 48.0746C90.9673 48.1499 90.9091 48.2188 90.8381 48.2812L90.3523 48.1364C90.4205 48.0469 90.4815 47.9567 90.5355 47.8658C90.5895 47.7749 90.6165 47.6804 90.6165 47.5824C90.6165 47.4205 90.5568 47.2905 90.4375 47.1925C90.3182 47.0945 90.1392 47.0455 89.9006 47.0455ZM91.4517 48.5795H88.3239V48.1108H91.4517V48.5795ZM91.4517 49.4659H88.3239V48.9972H91.4517V49.4659ZM89.8835 51.0597C89.4744 51.0597 89.1506 50.9723 88.9119 50.7976C88.6733 50.6229 88.554 50.3693 88.554 50.0369C88.554 49.9545 88.5661 49.8714 88.5902 49.7876C88.6158 49.7024 88.6527 49.6229 88.701 49.549C88.7507 49.4737 88.8125 49.4091 88.8864 49.3551L89.4318 49.4233C89.3168 49.5256 89.2351 49.625 89.1868 49.7216C89.1399 49.8168 89.1165 49.9219 89.1165 50.0369C89.1165 50.2031 89.1825 50.3345 89.3146 50.4311C89.4467 50.5263 89.6364 50.5739 89.8835 50.5739C90.1136 50.5739 90.3033 50.5263 90.4524 50.4311C90.6016 50.3345 90.6761 50.1776 90.6761 49.9602H91.2472C91.2472 50.2102 91.1896 50.4169 91.0746 50.5803C90.9595 50.7422 90.7997 50.8629 90.5952 50.9425C90.3906 51.0206 90.1534 51.0597 89.8835 51.0597Z"
        fill="white" />
    <circle cx="55.5" cy="61.5" r="2.5" fill="#9747FF" />
    <path
        d="M54.5568 62V61.8438H54.5966C54.6293 61.8438 54.6565 61.8374 54.6783 61.8246C54.7 61.8113 54.7176 61.7884 54.7308 61.7557C54.7446 61.7225 54.755 61.6766 54.7621 61.6179C54.7696 61.5587 54.7751 61.4834 54.7784 61.392L54.7983 60.9091H55.5256V62H55.358V61.0653H54.9574L54.9403 61.4545C54.9366 61.544 54.9285 61.6229 54.9162 61.6911C54.9044 61.7588 54.8861 61.8156 54.8615 61.8615C54.8374 61.9074 54.8052 61.942 54.7649 61.9652C54.7247 61.9884 54.6742 62 54.6136 62H54.5568ZM55.8331 62V60.9091H56.2791C56.3965 60.9091 56.4898 60.9356 56.5589 60.9886C56.6281 61.0417 56.6626 61.1117 56.6626 61.1989C56.6626 61.2652 56.643 61.3165 56.6037 61.353C56.5644 61.389 56.514 61.4134 56.4524 61.4261C56.4927 61.4318 56.5317 61.446 56.5696 61.4688C56.608 61.4915 56.6397 61.5227 56.6648 61.5625C56.6899 61.6018 56.7024 61.6501 56.7024 61.7074C56.7024 61.7633 56.6882 61.8132 56.6598 61.8572C56.6314 61.9013 56.5907 61.9361 56.5376 61.9616C56.4846 61.9872 56.4212 62 56.3473 62H55.8331ZM55.9922 61.8466H56.3473C56.4051 61.8466 56.4503 61.8329 56.483 61.8054C56.5156 61.7779 56.532 61.7405 56.532 61.6932C56.532 61.6368 56.5156 61.5926 56.483 61.5604C56.4503 61.5277 56.4051 61.5114 56.3473 61.5114H55.9922V61.8466ZM55.9922 61.3665H56.2791C56.3241 61.3665 56.3627 61.3603 56.3949 61.348C56.4271 61.3352 56.4517 61.3172 56.4688 61.294C56.4863 61.2704 56.495 61.2424 56.495 61.2102C56.495 61.1643 56.4759 61.1283 56.4375 61.1023C56.3991 61.0758 56.3464 61.0625 56.2791 61.0625H55.9922V61.3665Z"
        fill="white" />
    <circle cx="66.5" cy="67.5" r="2.5" fill="#9747FF" />
    <path
        d="M65.5645 67.9034L65.5602 67.5923H65.6114L66.3273 66.8636H66.6384L65.8756 67.6349H65.8543L65.5645 67.9034ZM65.3301 68.5V66.3182H65.5815V68.5H65.3301ZM66.3699 68.5L65.7307 67.6903L65.9097 67.5156L66.6895 68.5H66.3699ZM66.962 68.5V66.8636H67.2049V67.1108H67.2219C67.2517 67.0298 67.3057 66.9641 67.3838 66.9137C67.462 66.8633 67.55 66.8381 67.648 66.8381C67.6665 66.8381 67.6896 66.8384 67.7173 66.8391C67.745 66.8398 67.7659 66.8409 67.7801 66.8423V67.098C67.7716 67.0959 67.7521 67.0927 67.7215 67.0884C67.6917 67.0835 67.6601 67.081 67.6267 67.081C67.5472 67.081 67.4762 67.0977 67.4137 67.131C67.3519 67.1637 67.3029 67.2092 67.2666 67.2674C67.2311 67.3249 67.2134 67.3906 67.2134 67.4645V68.5H66.962Z"
        fill="white" />
    <circle cx="90" cy="56" r="3" fill="#9747FF" />
    <path
        d="M89.239 57.264C89.089 57.264 88.949 57.24 88.819 57.192C88.691 57.144 88.587 57.072 88.507 56.976C88.429 56.88 88.39 56.759 88.39 56.613C88.39 56.583 88.393 56.541 88.399 56.487C88.407 56.431 88.423 56.364 88.447 56.286C88.471 56.208 88.509 56.122 88.561 56.028L88.768 56.13C88.738 56.192 88.713 56.249 88.693 56.301C88.673 56.351 88.658 56.398 88.648 56.442C88.64 56.484 88.636 56.526 88.636 56.568C88.636 56.67 88.663 56.754 88.717 56.82C88.773 56.888 88.847 56.938 88.939 56.97C89.033 57.002 89.136 57.018 89.248 57.018C89.43 57.018 89.573 56.982 89.677 56.91C89.781 56.84 89.854 56.738 89.896 56.604C89.938 56.468 89.955 56.305 89.947 56.115L89.89 54.558H90.139L90.187 56.079C90.191 56.235 90.179 56.384 90.151 56.526C90.123 56.668 90.073 56.794 90.001 56.904C89.929 57.016 89.83 57.104 89.704 57.168C89.58 57.232 89.425 57.264 89.239 57.264ZM91.072 57.261C91.028 57.261 90.991 57.246 90.961 57.216C90.931 57.186 90.916 57.15 90.916 57.108C90.916 57.064 90.931 57.026 90.961 56.994C90.991 56.964 91.028 56.949 91.072 56.949C91.114 56.949 91.15 56.964 91.18 56.994C91.21 57.026 91.225 57.064 91.225 57.108C91.225 57.15 91.21 57.186 91.18 57.216C91.15 57.246 91.114 57.261 91.072 57.261ZM91.459 57.261C91.415 57.261 91.378 57.246 91.348 57.216C91.318 57.186 91.303 57.15 91.303 57.108C91.303 57.064 91.318 57.026 91.348 56.994C91.378 56.964 91.415 56.949 91.459 56.949C91.501 56.949 91.537 56.964 91.567 56.994C91.597 57.026 91.612 57.064 91.612 57.108C91.612 57.15 91.597 57.186 91.567 57.216C91.537 57.246 91.501 57.261 91.459 57.261ZM89.341 56.343C89.239 56.343 89.157 56.324 89.095 56.286C89.035 56.246 88.991 56.194 88.963 56.13C88.935 56.066 88.921 55.998 88.921 55.926C88.921 55.834 88.946 55.729 88.996 55.611C89.046 55.493 89.129 55.376 89.245 55.26L89.422 55.395C89.354 55.467 89.294 55.548 89.242 55.638C89.192 55.726 89.167 55.81 89.167 55.89C89.167 55.95 89.184 55.997 89.218 56.031C89.252 56.065 89.301 56.082 89.365 56.082C89.415 56.082 89.465 56.071 89.515 56.049C89.567 56.025 89.625 55.988 89.689 55.938C89.753 55.888 89.829 55.822 89.917 55.74C90.005 55.658 90.112 55.559 90.238 55.443C90.39 55.303 90.515 55.192 90.613 55.11C90.711 55.026 90.796 54.966 90.868 54.93C90.942 54.892 91.016 54.873 91.09 54.873C91.192 54.873 91.283 54.905 91.363 54.969C91.445 55.031 91.5 55.132 91.528 55.272L91.324 55.353C91.308 55.307 91.289 55.267 91.267 55.233C91.247 55.199 91.222 55.173 91.192 55.155C91.164 55.137 91.129 55.128 91.087 55.128C91.045 55.128 91.002 55.138 90.958 55.158C90.914 55.178 90.864 55.209 90.808 55.251C90.754 55.293 90.69 55.348 90.616 55.416C90.544 55.484 90.457 55.565 90.355 55.659C90.201 55.803 90.072 55.92 89.968 56.01C89.866 56.098 89.779 56.167 89.707 56.217C89.635 56.265 89.571 56.298 89.515 56.316C89.459 56.334 89.401 56.343 89.341 56.343ZM91.093 56.715C90.941 56.715 90.822 56.699 90.736 56.667C90.65 56.635 90.589 56.581 90.553 56.505C90.517 56.429 90.497 56.327 90.493 56.199L90.433 54.558H90.679L90.739 56.103C90.743 56.177 90.749 56.238 90.757 56.286C90.765 56.332 90.781 56.369 90.805 56.397C90.829 56.423 90.866 56.442 90.916 56.454C90.966 56.464 91.034 56.469 91.12 56.469C91.232 56.469 91.316 56.463 91.372 56.451C91.43 56.437 91.469 56.412 91.489 56.376C91.511 56.338 91.522 56.283 91.522 56.211C91.522 56.135 91.504 56.04 91.468 55.926C91.434 55.81 91.395 55.695 91.351 55.581L91.594 55.491C91.62 55.555 91.644 55.628 91.666 55.71C91.69 55.792 91.71 55.873 91.726 55.953C91.742 56.033 91.75 56.103 91.75 56.163C91.75 56.263 91.736 56.348 91.708 56.418C91.682 56.488 91.642 56.545 91.588 56.589C91.534 56.633 91.466 56.665 91.384 56.685C91.302 56.705 91.205 56.715 91.093 56.715Z"
        fill="white" />
    <circle cx="61.5" cy="62.5" r="2.5" fill="#9747FF" />
    <path
        d="M60.4832 63.5V63.3082L61.4122 62.1151V62.098H60.5131V61.8636H61.7361V62.0639L60.8327 63.2486V63.2656H61.7659V63.5H60.4832ZM62.639 62.1364V62.3239L61.9188 62.5966V62.4091L62.639 62.1364ZM62.4046 61.3182V63.5H62.1532V61.3182H62.4046Z"
        fill="white" />
    <circle cx="51.5" cy="57.5" r="2.5" fill="#9747FF" />
    <path
        d="M49.9761 58V56.5455H50.1523V57.8438H50.8284V58H49.9761ZM51.5358 58.0227C51.4307 58.0227 51.34 57.9995 51.2638 57.9531C51.188 57.9062 51.1295 57.8409 51.0884 57.7571C51.0476 57.6728 51.0273 57.5748 51.0273 57.4631C51.0273 57.3513 51.0476 57.2528 51.0884 57.1676C51.1295 57.0819 51.1868 57.0152 51.2602 56.9673C51.3341 56.919 51.4203 56.8949 51.5188 56.8949C51.5756 56.8949 51.6317 56.9044 51.6871 56.9233C51.7425 56.9422 51.7929 56.973 51.8384 57.0156C51.8838 57.0578 51.92 57.1136 51.947 57.1832C51.974 57.2528 51.9875 57.3385 51.9875 57.4403V57.5114H51.1466V57.3665H51.817C51.817 57.3049 51.8047 57.25 51.7801 57.2017C51.756 57.1534 51.7214 57.1153 51.6764 57.0874C51.6319 57.0594 51.5794 57.0455 51.5188 57.0455C51.452 57.0455 51.3942 57.062 51.3455 57.0952C51.2972 57.1278 51.26 57.1705 51.234 57.223C51.2079 57.2756 51.1949 57.3319 51.1949 57.392V57.4886C51.1949 57.571 51.2091 57.6409 51.2375 57.6982C51.2664 57.755 51.3064 57.7983 51.3575 57.8281C51.4087 57.8575 51.4681 57.8722 51.5358 57.8722C51.5798 57.8722 51.6196 57.866 51.6551 57.8537C51.6911 57.8409 51.7221 57.822 51.7482 57.7969C51.7742 57.7713 51.7943 57.7396 51.8085 57.7017L51.9705 57.7472C51.9534 57.8021 51.9248 57.8504 51.8845 57.892C51.8443 57.9332 51.7946 57.9654 51.7354 57.9886C51.6762 58.0114 51.6097 58.0227 51.5358 58.0227ZM52.93 57.554V56.9091H53.0976V58H52.93V57.8153H52.9186C52.893 57.8707 52.8533 57.9179 52.7993 57.9567C52.7453 57.995 52.6771 58.0142 52.5947 58.0142C52.5266 58.0142 52.466 57.9993 52.4129 57.9695C52.3599 57.9392 52.3182 57.8937 52.2879 57.8331C52.2576 57.772 52.2425 57.6951 52.2425 57.6023V56.9091H52.4101V57.5909C52.4101 57.6705 52.4323 57.7339 52.4768 57.7812C52.5218 57.8286 52.5791 57.8523 52.6487 57.8523C52.6904 57.8523 52.7328 57.8416 52.7759 57.8203C52.8194 57.799 52.8559 57.7663 52.8852 57.7223C52.9151 57.6783 52.93 57.6222 52.93 57.554Z"
        fill="white" />
    <circle cx="42.5" cy="61.5" r="2.5" fill="#9747FF" />
    <path
        d="M41.684 62L41.644 60.572H41.806L41.846 62H41.684ZM41.63 62.606L41.606 62.498C41.6407 62.49 41.6687 62.4833 41.69 62.478C41.7113 62.4727 41.7353 62.4667 41.762 62.46L41.752 62.502C41.7173 62.4913 41.684 62.4687 41.652 62.434C41.6213 62.3993 41.606 62.36 41.606 62.316C41.606 62.276 41.6153 62.242 41.634 62.214C41.654 62.1873 41.6793 62.1673 41.71 62.154C41.742 62.1407 41.776 62.134 41.812 62.134C41.8267 62.134 41.842 62.1353 41.858 62.138C41.8753 62.1407 41.8913 62.1447 41.906 62.15L41.89 62.25C41.8767 62.2473 41.864 62.2447 41.852 62.242C41.84 62.2393 41.8267 62.238 41.812 62.238C41.7813 62.238 41.7573 62.244 41.74 62.256C41.7227 62.2693 41.714 62.2873 41.714 62.31C41.714 62.338 41.7227 62.362 41.74 62.382C41.7587 62.402 41.7793 62.4173 41.802 62.428C41.826 62.44 41.8453 62.446 41.86 62.446L41.778 62.454C41.814 62.4447 41.8473 62.4347 41.878 62.424C41.91 62.4147 41.9387 62.4053 41.964 62.396L41.996 62.498C41.964 62.51 41.926 62.5227 41.882 62.536C41.8393 62.5493 41.796 62.562 41.752 62.574C41.708 62.586 41.6673 62.5967 41.63 62.606ZM42.2521 62.0114C42.2171 62.0114 42.187 61.9988 42.1619 61.9737C42.1368 61.9486 42.1243 61.9186 42.1243 61.8835C42.1243 61.8485 42.1368 61.8184 42.1619 61.7933C42.187 61.7682 42.2171 61.7557 42.2521 61.7557C42.2872 61.7557 42.3172 61.7682 42.3423 61.7933C42.3674 61.8184 42.38 61.8485 42.38 61.8835C42.38 61.9067 42.3741 61.928 42.3622 61.9474C42.3509 61.9669 42.3355 61.9825 42.3161 61.9943C42.2971 62.0057 42.2758 62.0114 42.2521 62.0114ZM42.5973 61.91L42.6773 61.772C42.704 61.7893 42.7413 61.806 42.7893 61.822C42.8373 61.838 42.8933 61.846 42.9573 61.846C43.024 61.846 43.0767 61.8393 43.1153 61.826C43.1553 61.8127 43.184 61.7933 43.2013 61.768C43.22 61.7413 43.2293 61.7107 43.2293 61.676C43.2293 61.6493 43.2233 61.6167 43.2113 61.578C43.2007 61.538 43.1767 61.4847 43.1393 61.418C43.102 61.35 43.0447 61.2613 42.9673 61.152L43.1053 61.062C43.176 61.1593 43.232 61.2473 43.2733 61.326C43.316 61.4047 43.346 61.474 43.3633 61.534C43.382 61.5927 43.3913 61.6433 43.3913 61.686C43.3913 61.7393 43.378 61.7913 43.3513 61.842C43.3247 61.8913 43.28 61.932 43.2173 61.964C43.1547 61.996 43.068 62.012 42.9573 62.012C42.9093 62.012 42.8627 62.008 42.8173 62C42.7733 61.992 42.7327 61.9807 42.6953 61.966C42.658 61.95 42.6253 61.9313 42.5973 61.91Z"
        fill="white" />
    <circle cx="76.5" cy="61.5" r="2.5" fill="#9747FF" />
    <path
        d="M76.7188 61.6136H75.6108V61.3793H76.7188C76.821 61.3793 76.9055 61.3615 76.9723 61.326C77.0391 61.2898 77.0888 61.2408 77.1214 61.179C77.1541 61.1165 77.1705 61.0455 77.1705 60.9659C77.1705 60.8864 77.1541 60.8157 77.1214 60.7539C77.0888 60.6914 77.0391 60.6424 76.9723 60.6069C76.9055 60.5707 76.821 60.5526 76.7188 60.5526H76.2202V62.5H75.956V60.3182H76.7188C76.8807 60.3182 77.0142 60.3477 77.1193 60.4066C77.2244 60.4656 77.3026 60.544 77.3537 60.642C77.4048 60.7401 77.4304 60.848 77.4304 60.9659C77.4304 61.0838 77.4048 61.1918 77.3537 61.2898C77.3026 61.3878 77.2244 61.4663 77.1193 61.5252C77.0142 61.5842 76.8807 61.6136 76.7188 61.6136ZM76.7017 61.8182V62.0526H75.6108V61.8182H76.7017Z"
        fill="white" />
    <circle cx="43.5" cy="56.5" r="1.5" fill="#9747FF" />
    <path
        d="M43.4284 57.2V55.7455H43.5449V57.2H43.4284ZM43.4966 57.0366C43.3943 57.0366 43.3062 57.0125 43.2324 56.9642C43.1585 56.9159 43.1017 56.8494 43.0619 56.7646C43.0222 56.6799 43.0023 56.583 43.0023 56.4741C43.0023 56.3634 43.0226 56.2656 43.0633 56.1808C43.1045 56.0956 43.1618 56.0291 43.2352 55.9813C43.3091 55.933 43.3953 55.9088 43.4937 55.9088C43.5704 55.9088 43.6396 55.923 43.7011 55.9514C43.7627 55.9798 43.8131 56.0196 43.8524 56.0707C43.8917 56.1219 43.9161 56.1815 43.9256 56.2497H43.7579C43.7452 56.2 43.7168 56.156 43.6727 56.1176C43.6292 56.0788 43.5704 56.0594 43.4966 56.0594C43.4312 56.0594 43.374 56.0764 43.3247 56.1105C43.2759 56.1441 43.2378 56.1917 43.2104 56.2533C43.1834 56.3143 43.1699 56.3861 43.1699 56.4685C43.1699 56.5527 43.1831 56.6261 43.2097 56.6886C43.2366 56.7511 43.2745 56.7997 43.3233 56.8342C43.3725 56.8688 43.4303 56.8861 43.4966 56.8861C43.5401 56.8861 43.5797 56.8785 43.6152 56.8634C43.6507 56.8482 43.6808 56.8264 43.7054 56.798C43.73 56.7696 43.7475 56.7355 43.7579 56.6957H43.9256C43.9161 56.7601 43.8927 56.8181 43.8552 56.8697C43.8183 56.9209 43.7693 56.9616 43.7082 56.9919C43.6476 57.0217 43.5771 57.0366 43.4966 57.0366Z"
        fill="white" />
    <defs>
        <linearGradient id="paint0_linear_2_2" x1="119" y1="12" x2="11.5" y2="120.5" gradientUnits="userSpaceOnUse">
            <stop stop-color="#B512D2" />
            <stop offset="1" stop-color="#007BE5" />
        </linearGradient>
        <linearGradient id="paint1_linear_2_2" x1="65.5" y1="70" x2="65.5" y2="91" gradientUnits="userSpaceOnUse">
            <stop stop-color="#007BE5" />
            <stop offset="1" stop-color="#9747FF" />
        </linearGradient>
        <linearGradient id="paint2_linear_2_2" x1="48.5" y1="26" x2="48.5" y2="47" gradientUnits="userSpaceOnUse">
            <stop stop-color="#007BE5" />
            <stop offset="1" stop-color="#9747FF" />
        </linearGradient>
        <linearGradient id="paint3_linear_2_2" x1="81.5" y1="26" x2="81.5" y2="47" gradientUnits="userSpaceOnUse">
            <stop stop-color="#007BE5" />
            <stop offset="0.9998" stop-color="#9448FE" />
            <stop offset="0.9999" stop-color="#9747FF" stop-opacity="0.8" />
        </linearGradient>
        <linearGradient id="paint4_linear_2_2" x1="99.5" y1="70" x2="99.5" y2="91" gradientUnits="userSpaceOnUse">
            <stop stop-color="#007BE5" />
            <stop offset="1" stop-color="#9747FF" />
        </linearGradient>
        <linearGradient id="paint5_linear_2_2" x1="30.5" y1="69" x2="30.5" y2="90" gradientUnits="userSpaceOnUse">
            <stop stop-color="#007BE5" />
            <stop offset="1" stop-color="#9747FF" />
        </linearGradient>
    </defs>
</svg>