<?xml version="1.0" standalone="no"?>
<!DOCTYPE svg PUBLIC "-//W3C//DTD SVG 1.1//EN" "http://www.w3.org/Graphics/SVG/1.1/DTD/svg11.dtd"><svg t="1680004857185"
    class="icon" viewBox="0 0 1024 1024" version="1.1" xmlns="http://www.w3.org/2000/svg" p-id="3051"
    xmlns:xlink="http://www.w3.org/1999/xlink" width="200" height="200">
    <path
        d="M929.066667 484.693333a32.256 32.256 0 0 1-23.04 9.301334v-0.768a32.64 32.64 0 0 1-32.64-32.64V352.128c0-130.218667-71.296-201.514667-201.130667-201.514667H352.085333C222.293333 150.613333 150.613333 222.293333 150.613333 352.128v320.085333c0 129.493333 71.68 201.173333 201.514667 201.173334h320.085333c129.877333 0 201.173333-71.68 201.173334-201.130667a32.64 32.64 0 1 1 65.28 0C938.666667 836.565333 836.608 938.666667 672.213333 938.666667H352.128C187.434667 938.666667 85.333333 836.608 85.333333 672.213333V352.128C85.333333 187.434667 187.392 85.333333 352.128 85.333333h320.085333C835.84 85.333333 938.666667 187.392 938.666667 352.128v109.610667c0 8.618667-3.413333 16.853333-9.6 22.912z m-415.573334-149.802666c3.498667 0 6.954667 0.554667 10.24 1.664a32.682667 32.682667 0 0 1 23.552 31.36v102.058666h111.061334a32.213333 32.213333 0 0 1 11.221333 1.877334 32.256 32.256 0 0 1 22.570667 31.146666 32.64 32.64 0 0 1-31.914667 32.64H369.408a33.194667 33.194667 0 0 1-8.021333-1.152 33.024 33.024 0 0 1-25.770667-31.872 32.256 32.256 0 0 1 32.298667-32.64h112.554666V367.530667a33.408 33.408 0 0 1 33.024-32.64z m-32.256 320.085333v-41.301333a32.682667 32.682667 0 0 1 33.749334-31.488 32.298667 32.298667 0 0 1 31.573333 33.749333v41.301333a32.64 32.64 0 1 1-65.322667-2.261333z"
        p-id="3052"></path>
</svg>