<?xml version="1.0" encoding="utf-8"?>
<!-- Generator: Adobe Illustrator 22.0.1, SVG Export Plug-In . SVG Version: 6.00 Build 0)  -->
<svg version="1.1" id="Layer_1" xmlns="http://www.w3.org/2000/svg" xmlns:xlink="http://www.w3.org/1999/xlink" x="0px"
	y="0px" viewBox="0 0 300 100" style="enable-background:new 0 0 300 100;" xml:space="preserve">
	<style type="text/css">
		.st0 {
			fill: url(#SVGID_1_);
		}

		.st1 {
			fill: url(#SVGID_2_);
		}

		.st2 {
			opacity: 0.2;
			fill: #FFFFFF;
			enable-background: new;
		}

		.st3 {
			fill: url(#SVGID_3_);
		}

		.st4 {
			fill: #78797B;
		}
	</style>
	<linearGradient id="SVGID_1_" gradientUnits="userSpaceOnUse" x1="1.859223e-02" y1="138.5172" x2="175.2031"
		y2="138.5172" gradientTransform="matrix(1 0 0 1 0 -99.3)">
		<stop offset="0" style="stop-color:#D5D5D7" />
		<stop offset="1" style="stop-color:#78797B" />
	</linearGradient>
	<path class="st0" d="M66.4,9.6c28.2-4.7,63.1,3.4,87.4,12.1c2.5,0.9,7.1,2.6,10,3.8h-1.2v2c-2.8-0.9-5.7-1.7-9.1-2.7
	c-15.7-4.6-36.4-9.6-56.2-10.5l-0.2-0.1c-0.7-0.5-1.6-1-2.3-1.4l0,0c-1.8-1-3.7-1.7-5.8-2.2c-2.1-0.5-4.1-0.9-6.4-1h-0.2
	C82.4,9.6,66.4,9.6,66.4,9.6z M76.6,77.2c1.5,0.4,3,0.6,4.6,1h-4.6l0,0V77.2z M45.8,32.2C44.5,34.7,43,38,43,41.5
	c0,3.7,1.3,7.5,2.8,10.7V52c0.6,1.4,1.3,2.7,2.1,4.1c0.4,0.6,0.8,1.2,1.2,1.8c0.7,1,2.4,3.2,5.1,5.9v-0.1c0.4,0.5,0.7,0.9,1.1,1.4
	c0.5,0.5,1,0.9,1.5,1.4v11.7v0.1h-2.5l0,0l0,0l-11.1-0.4c-22-12.8-27-38-5.9-55.7c5.6-4.7,12.2-8,19.6-10.2v2.6v7
	c-0.5,0.2-1,0.6-1.6,0.9l0,0l0,0l0,0l0,0l0,0c-0.5,0.4-3.7,2.5-6.2,5.3L49,27.9c-0.2,0.4-0.6,0.7-0.8,1.1l0,0l0,0
	c-0.8,1.2-1.7,2.5-2.3,3.7v-0.4h-0.1V32.2z M171.4,25.6c-17.5-7.7-51.3-20.3-84-20.3c-47.2,0-68.8,18.4-69.9,42.2
	c-1.1,23.8,17.2,30.9,17.2,30.9h-25c0,0-16.9-16.7-6-42.3c10.9-25.7,53.8-43.2,106-33.2c33.7,6.4,54.8,16.5,65.5,22.9h-3.9
	L171.4,25.6L171.4,25.6z" />
	<linearGradient id="SVGID_2_" gradientUnits="userSpaceOnUse" x1="61.289" y1="143.5475" x2="297.0182" y2="143.5475"
		gradientTransform="matrix(1 0 0 1 0 -99.3)">
		<stop offset="0" style="stop-color:#143F8F" />
		<stop offset="1" style="stop-color:#00529B" />
	</linearGradient>
	<path class="st1" d="M71.8,46.3h10.4c1.9-0.1,3.6-0.5,5.2-1.4c1.3-0.6,2.5-1.7,3.6-3.1c1.1-1.5,1.6-3.4,1.6-6.1
	c0-1.4-0.1-2.5-0.5-3.4c-0.2-1-0.7-1.8-1.2-2.6c-0.5-0.7-1.1-1.4-1.7-1.8c-0.6-0.5-1.2-1-1.9-1.2c-1.6-0.7-3.3-1.2-5.2-1.4H71.7v21
	H71.8z M288.3,9.1h8.7v69h-8.7V9.1z M237.9,54.2c0,2.1,0.5,4.1,1.3,6c1,2,2.2,3.7,3.6,5.3c1.6,1.6,3.3,2.8,5.2,3.7
	c1.9,1,3.9,1.4,5.9,1.4c2.1,0,4-0.5,5.9-1.4c1.9-1,3.6-2.2,5.2-3.7c1.6-1.6,2.8-3.3,3.6-5.3c1-2,1.3-3.9,1.3-6s-0.5-4.1-1.3-6
	c-1-2-2.2-3.7-3.6-5.3c-1.6-1.6-3.3-2.8-5.2-3.7c-1.9-1-3.9-1.4-5.9-1.4c-2.1,0-4,0.5-5.9,1.4c-1.9,1-3.6,2.2-5.2,3.7
	c-1.6,1.6-2.8,3.3-3.6,5.3C238.3,50.2,237.9,52.2,237.9,54.2z M270,78.1v-4.7c-0.4,0.4-1,0.9-1.8,1.6c-0.8,0.6-2.1,1.4-3.4,2
	c-1.3,0.6-3,1.2-4.8,1.7c-1.8,0.5-3.9,0.7-6,0.7c-3.4,0-6.7-0.6-9.7-2c-3-1.4-5.6-3.1-7.9-5.4c-2.3-2.3-4-4.9-5.3-8
	c-1.3-3.1-1.9-6.3-1.9-9.8c0-3.4,0.6-6.8,1.9-9.8c1.3-3,3-5.7,5.3-8c2.3-2.3,4.8-4.1,7.9-5.4c3-1.4,6.2-2,9.7-2
	c2.2,0,4.1,0.2,5.8,0.6c1.7,0.4,3.1,0.9,4.5,1.5c1.3,0.6,2.4,1.2,3.4,2c1,0.7,1.8,1.4,2.5,2v-4.7h8.7v47.7L270,78.1L270,78.1z
	 M205.9,37.9h-8.7V29h8.7V14.5h8.7v14.6h8.7V38h-8.7v40.1h-8.7V37.9z M176.1,34.3c1.1-1,2.4-1.8,4-2.7c1.3-0.7,3-1.4,5.1-1.8
	c2.1-0.4,4.4-0.9,7-0.9v8.9c-2.9,0-5.4,0.6-7.7,1.7c-1,0.5-1.9,1.1-2.9,2c-1,0.7-1.8,1.7-2.5,3c-0.7,1.2-1.3,2.6-1.9,4.2
	c-0.5,1.6-0.8,3.4-1,5.5V78h-8.7V30.3h8.7v4H176.1z M113,72.7c-4.7-5-7.6-11.8-7.6-19.2c0-14.4,10.8-26.2,24.5-27.5
	c-0.2,1.6-1,4.1-2.9,7.1c-3.5,5.5-13.9,11.6-16.8,22.6C108.4,62.9,110.4,68.6,113,72.7z M135.3,26c13.8,1.4,24.5,13.2,24.5,27.5
	c0,7.5-2.9,14.3-7.6,19.2c2.5-4.1,4.6-9.8,2.8-17.1c-2.9-11.1-13.2-17.1-16.8-22.6C136.3,30,135.6,27.6,135.3,26z M61.3,14.4h20.9
	c3.9,0.2,7.4,1.1,10.4,2.7c1.3,0.7,2.5,1.5,3.9,2.6c1.2,1,2.4,2.2,3.4,3.8c1,1.5,1.7,3.2,2.3,5.3c0.6,2,0.8,4.3,0.8,7s-0.2,5-0.8,7
	c-0.6,2-1.3,3.8-2.3,5.3c-1,1.5-2.1,2.7-3.4,3.8c-1.2,1-2.5,1.8-3.9,2.5c-3,1.6-6.5,2.5-10.4,2.7H71.8v21.3H61.4v-64
	C61.4,14.4,61.3,14.4,61.3,14.4z" />
	<path class="st2" d="M278.7,54.2c-2.9-0.9-5.8-1.6-8.9-2.3c-0.2-1.2-0.6-2.5-1.2-3.7c-1-2-2.2-3.7-3.6-5.3c-1.6-1.6-3.3-2.8-5.2-3.7
	c-1.9-1-3.9-1.4-5.9-1.4c-2.1,0-4,0.5-5.9,1.4c-1.9,1-3.6,2.2-5.2,3.7c-1,1-1.9,2.2-2.7,3.3c-3-0.5-6.2-0.9-9.4-1.2
	c0.1-0.2,0.1-0.5,0.2-0.7c1.3-3.1,3-5.7,5.3-8c2.3-2.3,4.8-4.1,7.9-5.4c3-1.4,6.2-2,9.7-2c2.2,0,4.1,0.2,5.8,0.6
	c1.7,0.4,3.1,0.9,4.5,1.5c1.3,0.6,2.4,1.2,3.4,2c1,0.7,1.8,1.4,2.5,2v-4.7h8.7v24l0,0V54.2z M288.3,57.3c3.1,1.1,6,2.2,8.7,3.3V9.1
	h-8.7V57.3z M127,33c1.9-3,2.7-5.4,2.9-7.1c-11.5,1.1-20.9,9.6-23.7,20.8c3-0.5,6.2-0.9,9.4-1.2C119.6,40.4,124.7,36.5,127,33z
	 M135.3,26c0.2,1.6,1,4.1,2.9,7.1c1.8,2.8,5.6,5.9,9.1,9.7c3.4-0.1,6.8-0.4,10.3-0.5C153.6,33.3,145.2,26.9,135.3,26z M214.6,43.5
	v-5.7h8.7V29h-8.7V14.5h-8.7v14.6h-8.7V38h8.7v4.9C208.8,43.1,211.7,43.3,214.6,43.5z M103.2,35.7c0,2.7-0.2,5-0.8,7
	c-0.6,1.8-1.3,3.6-2.2,5c-14.8,2.5-27.8,5.5-38.7,9.2V14.4h20.9c3.9,0.2,7.4,1.1,10.4,2.7c1.3,0.7,2.5,1.5,3.9,2.6
	c1.2,1,2.4,2.2,3.4,3.8c1,1.5,1.7,3.2,2.3,5.3C102.8,30.6,103.2,33,103.2,35.7z M92.6,35.7c0-1.4-0.1-2.5-0.5-3.4
	c-0.2-1-0.7-1.8-1.2-2.6c-0.5-0.7-1.1-1.4-1.7-1.8c-0.6-0.4-1.2-1-1.9-1.2c-1.6-0.7-3.3-1.2-5.2-1.4H71.7v21.3h10.4
	c1.9-0.1,3.6-0.5,5.2-1.4c1.3-0.6,2.5-1.7,3.6-3.1C92.2,40.4,92.6,38.3,92.6,35.7z M167.4,30.3V42c2.3,0,4.7,0,7,0
	c2.2,0,4.4,0,6.7,0c0.1-0.1,0.4-0.4,0.5-0.5c1-0.7,1.9-1.5,2.9-2c2.3-1.2,5-1.7,7.7-1.7v-8.9c-2.7,0-5.1,0.2-7,0.9
	c-2.1,0.5-3.6,1.1-5.1,1.8c-1.6,0.7-2.9,1.7-4,2.7v-3.9h-8.7L167.4,30.3L167.4,30.3z" />
	<linearGradient id="SVGID_3_" gradientUnits="userSpaceOnUse" x1="113.2949" y1="153.0517" x2="152.1754" y2="153.0517"
		gradientTransform="matrix(1 0 0 1 0 -99.3)">
		<stop offset="0" style="stop-color:#FFC223" />
		<stop offset="1" style="stop-color:#EC1C24" />
	</linearGradient>
	<path class="st3" d="M133.4,28.4c0,0-1.1,4.6-1,8c0,3.4,0.7,7.1,3,7.4c2.1,0.2,0.4-3.6,0-6.1c-0.1-1-0.2-2.3,0.1-3.2
	c0,0,0.2,1.7,3.4,5.5c5.9,7.1,16,16.7,12.5,27.2c-1.7,5.5-6.2,10-12.1,11.9c6-4.3,11-11.3,4.5-21.5c1.1,3,2.1,8.2-2.1,8.4
	c-2.8,0.1-3.3-8.1-6-9.2c0,7.9-0.1,14.1-8,14.4c-5.2,0.1-7.9-5.8-7.4-11.7c-2.9,3.6-4,13.2,3.1,18.7c-6.2-3-10.3-8.9-10.3-15.5
	c0-4.8,2.1-9.1,5.4-12.3c2.5-2.6,5.3-4.4,6-7.5c2.2,3.2-1,8.6-0.8,11.8c0,1.4,0.7,2.6,2.3,2.8c1.6,0.2,4-1,4-4.7
	c-0.1-3.7-2.1-8.4-1.8-13.2C128.8,34.8,130.1,30.5,133.4,28.4" />
	<path class="st4" d="M294.6,99.6h-2.1l0.8-4.1l-2.8-6.3h2.2l1.2,3c0.2,0.7,0.5,1.2,0.6,1.5c0.1-0.2,0.4-0.6,0.6-1l1-1.4l1.5-2.1h2.4
	l-4.6,6.5L294.6,99.6z M287.3,99.6h-1.9l-2.8-6.9l-1.5,6.9h-1.9l2.2-10.3h1.9l2.8,6.9l1.5-6.9h1.9L287.3,99.6z M275.5,95.6l-0.6-4.2
	l-2.2,4.2H275.5z M275.7,97.3h-4l-1.2,2.2h-2.2l5.7-10.3h2.3l1.7,10.3h-1.9L275.7,97.3z M264,94h0.6c1.1,0,1.8-0.1,2.2-0.2
	c0.4-0.1,0.6-0.4,0.8-0.6c0.2-0.2,0.4-0.6,0.4-1c0-0.2,0-0.5-0.1-0.6s-0.2-0.2-0.5-0.4c-0.2-0.1-0.6-0.1-1.3-0.1h-1.5L264,94z
	 M262.8,99.6h-2.1l2.2-10.3h4.1c0.7,0,1.3,0.1,1.7,0.2c0.5,0.1,0.7,0.5,1,0.9c0.2,0.4,0.4,0.9,0.4,1.5c0,0.5-0.1,1-0.2,1.5
	c-0.2,0.5-0.5,0.9-0.7,1.2c-0.2,0.2-0.6,0.5-1,0.6c-0.4,0.1-0.7,0.2-1.3,0.4c-0.4,0-1,0.1-1.8,0.1h-1.3L262.8,99.6z M254.8,99.6
	h-1.9l-0.4-8.6l-1.6,8.6H249l2.2-10.3h3l0.4,7.1l3.1-7.1h3l-1.8,10.3H257l1.8-8.5L254.8,99.6z M240.6,95.6c0,0.7,0.2,1.4,0.6,1.7
	c0.5,0.5,1,0.7,1.7,0.7c0.6,0,1.1-0.2,1.6-0.6s1-1,1.3-1.7c0.4-0.7,0.5-1.5,0.5-2.2c0-0.9-0.2-1.5-0.6-2c-0.5-0.5-1-0.7-1.7-0.7
	c-1,0-1.8,0.5-2.5,1.5C241,93.4,240.6,94.3,240.6,95.6z M238.6,95.6c0-0.6,0.1-1.2,0.2-2c0.2-0.9,0.6-1.7,1.1-2.3s1.1-1.2,1.8-1.6
	c0.7-0.4,1.6-0.6,2.5-0.6c1.2,0,2.3,0.4,3,1.2c0.7,0.7,1.2,1.8,1.2,3.2c0,1.1-0.2,2.1-0.7,3.2c-0.5,1-1.2,1.8-2.1,2.3
	c-0.9,0.5-1.8,0.9-2.9,0.9c-1,0-1.7-0.2-2.4-0.6c-0.6-0.5-1.1-1-1.3-1.6C238.7,96.9,238.6,96.2,238.6,95.6z M235.1,95.9l2.1,0.4
	c-0.4,1.1-1,2.1-1.8,2.6c-0.8,0.6-1.8,0.9-2.9,0.9c-1.2,0-2.2-0.4-2.9-1.1c-0.7-0.7-1.1-1.8-1.1-3.3c0-1.2,0.2-2.2,0.7-3.2
	c0.5-1,1.1-1.7,1.9-2.2s1.7-0.7,2.7-0.7c1.1,0,1.9,0.2,2.7,0.9c0.7,0.6,1.1,1.4,1.2,2.5l-1.9,0.2c-0.1-0.6-0.4-1-0.6-1.4
	c-0.4-0.2-0.7-0.4-1.2-0.4c-0.6,0-1.1,0.1-1.6,0.5s-0.8,0.9-1.2,1.7c-0.2,0.7-0.5,1.5-0.5,2.2c0,0.9,0.2,1.5,0.6,2s0.8,0.6,1.5,0.6
	c0.5,0,1-0.1,1.5-0.5C234.5,97.2,234.8,96.6,235.1,95.9z M221.7,99.6h-1.9l-2.8-6.9l-1.5,6.9h-1.9l2.2-10.3h1.9l2.8,6.9l1.5-6.9h1.9
	L221.7,99.6z M205.3,95.6c0,0.7,0.2,1.4,0.6,1.7c0.5,0.5,1,0.7,1.7,0.7c0.6,0,1.1-0.2,1.6-0.6s1-1,1.3-1.7c0.4-0.7,0.5-1.5,0.5-2.2
	c0-0.9-0.2-1.5-0.6-2c-0.5-0.5-1-0.7-1.7-0.7c-1,0-1.8,0.5-2.5,1.5C205.6,93.4,205.3,94.3,205.3,95.6z M203.3,95.6
	c0-0.6,0.1-1.2,0.2-2c0.2-0.9,0.6-1.7,1.1-2.3s1.1-1.2,1.8-1.6c0.7-0.4,1.6-0.6,2.5-0.6c1.2,0,2.3,0.4,3,1.2
	c0.7,0.7,1.2,1.8,1.2,3.2c0,1.1-0.2,2.1-0.7,3.2c-0.5,1-1.2,1.8-2.1,2.3c-0.8,0.5-1.8,0.9-2.9,0.9c-1,0-1.7-0.2-2.4-0.6
	c-0.6-0.5-1.1-1-1.3-1.6C203.4,96.9,203.3,96.2,203.3,95.6z M198.6,99.6l2.2-10.3h2.1l-2.2,10.3H198.6z M194.4,99.6h-2.1l1.8-8.6h-3
	l0.4-1.7h8l-0.4,1.7h-2.9L194.4,99.6z M182,89.3h2.1l-1.2,5.7l-0.4,1.4c0,0.1,0,0.2-0.1,0.5c0,0.4,0.1,0.7,0.5,1
	c0.4,0.2,0.7,0.4,1.3,0.4c0.5,0,1-0.1,1.3-0.2c0.4-0.2,0.6-0.5,0.8-0.9c0.2-0.4,0.4-1,0.6-2l1.2-5.7h2.1l-1.2,5.8
	c-0.2,1.1-0.5,2-0.8,2.6c-0.4,0.6-0.8,1.1-1.5,1.5c-0.7,0.4-1.6,0.6-2.5,0.6c-1.2,0-2.2-0.2-2.8-0.9c-0.6-0.7-1-1.4-1-2.2
	c0-0.2,0-0.4,0.1-0.6c0-0.1,0.1-0.6,0.2-1.2L182,89.3z M172.1,97.9h2.1c0.8,0,1.5,0,1.7-0.1c0.2-0.1,0.5-0.2,0.7-0.5
	c0.1-0.2,0.2-0.5,0.2-0.9s-0.1-0.6-0.4-0.9c-0.2-0.2-0.6-0.4-1.2-0.4h-2.5L172.1,97.9z M172.9,93.5h1.6c0.7,0,1.2,0,1.6-0.1
	c0.4-0.1,0.6-0.2,0.7-0.5c0.1-0.2,0.2-0.5,0.2-0.7c0-0.2-0.1-0.5-0.2-0.6c-0.1-0.1-0.4-0.2-0.6-0.4c-0.1,0-0.5,0-1.1,0h-1.6
	L172.9,93.5z M169.7,99.6l2.2-10.3h3.5c0.7,0,1.3,0,1.6,0.1c0.5,0.1,1,0.2,1.2,0.4c0.2,0.1,0.6,0.5,0.8,0.9c0.1,0.4,0.2,0.7,0.2,1.1
	c0,0.6-0.1,1.1-0.5,1.5c-0.4,0.4-0.8,0.7-1.5,1c0.5,0.1,1,0.4,1.2,0.7c0.2,0.4,0.5,0.7,0.5,1.2c0,0.6-0.1,1.2-0.5,1.7
	c-0.4,0.6-0.8,1-1.5,1.2c-0.7,0.2-1.5,0.4-2.5,0.4h-4.8v0.1H169.7z M165.7,99.6l2.2-10.3h2.1l-2.2,10.3H165.7z M158.8,93.9h1.1
	c1.1,0,1.8-0.1,2.2-0.2s0.6-0.4,0.8-0.6c0.2-0.2,0.4-0.6,0.4-0.9c0-0.4-0.1-0.6-0.5-0.9c-0.2-0.1-0.6-0.1-1.2-0.1h-2.3L158.8,93.9z
	 M157.6,99.6h-2.1l2.2-10.3h4.5c0.7,0,1.3,0.1,1.8,0.2s0.7,0.5,1.1,0.9c0.2,0.5,0.4,1,0.4,1.6c0,0.9-0.2,1.6-0.7,2.2
	c-0.5,0.6-1.3,0.9-2.3,1.1c0.2,0.2,0.5,0.6,0.7,1c0.5,0.9,1,2,1.6,3.4h-2.2c-0.1-0.6-0.5-1.5-1.1-2.7c-0.2-0.6-0.6-1.1-1-1.4
	c-0.2-0.1-0.5-0.2-1.1-0.2h-0.8L157.6,99.6z M151.3,99.6h-2.1L151,91h-3l0.4-1.7h8L156,91h-2.9L151.3,99.6z M137.7,96.3l1.9-0.1
	c0,0.6,0.1,1.1,0.4,1.4c0.4,0.4,0.8,0.5,1.7,0.5c0.7,0,1.2-0.1,1.5-0.4c0.4-0.2,0.5-0.5,0.5-0.9c0-0.2-0.1-0.6-0.4-0.7
	c-0.1-0.1-0.6-0.4-1.5-0.7c-0.7-0.4-1.3-0.6-1.7-0.9c-0.4-0.3-0.6-0.5-0.8-0.9s-0.4-0.9-0.4-1.4c0-0.9,0.4-1.6,1-2.2
	c0.6-0.6,1.5-0.9,2.7-0.9s2.1,0.2,2.8,0.9c0.6,0.6,1,1.4,1.1,2.2l-1.9,0.1c0-0.5-0.2-0.9-0.5-1.1c-0.2-0.2-0.7-0.4-1.3-0.4
	c-0.6,0-1,0.1-1.2,0.4c-0.2,0.2-0.4,0.5-0.4,0.7c0,0.2,0.1,0.5,0.4,0.7c0.2,0.2,0.7,0.5,1.5,0.9c1.2,0.5,1.9,1,2.2,1.2
	c0.5,0.5,0.7,1.1,0.7,1.8c0,0.9-0.4,1.7-1.1,2.3c-0.7,0.6-1.7,1-2.9,1c-0.8,0-1.6-0.1-2.3-0.5c-0.6-0.2-1.1-0.7-1.3-1.2
	C137.9,97.5,137.7,96.9,137.7,96.3z M133.4,99.6l2.2-10.3h2.1l-2.2,10.3H133.4z M125.8,97.9h1.1c0.7,0,1.3,0,1.7-0.1
	c0.4-0.1,0.6-0.2,1-0.5c0.4-0.4,0.7-0.9,1.1-1.5c0.2-0.6,0.5-1.4,0.5-2.2c0-0.7-0.1-1.2-0.4-1.6c-0.2-0.4-0.5-0.6-0.8-0.7
	c-0.2-0.1-0.7-0.1-1.3-0.1h-1.2L125.8,97.9z M123.3,99.6l2.2-10.3h2.8c0.7,0,1.2,0,1.5,0c0.4,0,0.8,0.1,1.1,0.2
	c0.4,0.1,0.6,0.4,0.8,0.5c0.2,0.2,0.5,0.5,0.7,0.9s0.4,0.7,0.5,1.1c0.1,0.5,0.1,0.9,0.1,1.5c0,1.1-0.2,2.1-0.6,3
	c-0.4,0.9-1,1.6-1.6,2.1c-0.5,0.4-1.1,0.7-1.9,0.9c-0.5,0.1-1.1,0.1-2.1,0.1L123.3,99.6C123.3,99.6,123.3,99.6,123.3,99.6z
	 M110.3,96.3l1.9-0.1c0,0.6,0.1,1.1,0.4,1.4c0.4,0.4,0.8,0.5,1.7,0.5c0.7,0,1.2-0.1,1.5-0.4c0.4-0.2,0.5-0.5,0.5-0.9
	c0-0.2-0.1-0.6-0.4-0.7c-0.1-0.1-0.6-0.4-1.5-0.7c-0.7-0.4-1.3-0.6-1.7-0.9c-0.4-0.3-0.6-0.5-0.8-0.9s-0.4-0.9-0.4-1.4
	c0-0.9,0.4-1.6,1-2.2c0.6-0.6,1.5-0.9,2.7-0.9c1.2,0,2.1,0.2,2.8,0.9c0.6,0.6,1,1.4,1.1,2.2l-1.9,0.1c0-0.5-0.2-0.9-0.5-1.1
	c-0.2-0.2-0.7-0.4-1.3-0.4c-0.6,0-1,0.1-1.2,0.4c-0.2,0.2-0.4,0.5-0.4,0.7c0,0.2,0.1,0.5,0.4,0.7c0.2,0.2,0.7,0.5,1.5,0.9
	c1.2,0.5,1.9,1,2.2,1.2c0.5,0.5,0.7,1.1,0.7,1.8c0,0.9-0.4,1.7-1.1,2.3c-0.7,0.6-1.7,1-2.9,1c-0.8,0-1.6-0.1-2.3-0.5
	c-0.6-0.2-1.1-0.7-1.3-1.2C110.4,97.5,110.3,96.9,110.3,96.3z M105.7,99.6h-2.1l1.8-8.6h-3l0.4-1.7h8l-0.4,1.7h-2.9L105.7,99.6z
	 M98.4,95.9l2.1,0.4c-0.4,1.1-1,2.1-1.8,2.6c-0.8,0.6-1.8,0.9-2.9,0.9c-1.2,0-2.2-0.4-2.9-1.1c-0.7-0.7-1.1-1.8-1.1-3.3
	c0-1.2,0.2-2.2,0.7-3.2c0.5-1,1.1-1.7,1.9-2.2s1.7-0.7,2.7-0.7c1.1,0,1.9,0.2,2.7,0.9c0.7,0.6,1.1,1.4,1.2,2.5l-2,0
	c-0.1-0.6-0.4-1-0.6-1.4c-0.4-0.2-0.7-0.4-1.2-0.4c-0.6,0-1.1,0.1-1.6,0.5c-0.5,0.4-0.8,0.9-1.2,1.7C94.2,94,94,94.7,94,95.4
	c0,0.9,0.2,1.5,0.6,2C95,97.9,95.4,98,96,98c0.5,0,1-0.1,1.5-0.5C98,97.2,98.2,96.6,98.4,95.9z M83.1,89.3h2.1L83.9,95l-0.4,1.4
	c0,0.1,0,0.2-0.1,0.5c0,0.4,0.1,0.7,0.5,1c0.4,0.2,0.7,0.4,1.3,0.4c0.5,0,1-0.1,1.3-0.2c0.4-0.2,0.6-0.5,0.8-0.9
	c0.2-0.4,0.4-1,0.6-2l1.2-5.7h2.1L90,95.3c-0.2,1.1-0.5,2-0.8,2.6c-0.4,0.6-0.8,1.1-1.5,1.5c-0.7,0.4-1.6,0.6-2.5,0.6
	c-1.2,0-2.2-0.2-2.8-0.9c-0.6-0.7-1-1.4-1-2.2c0-0.2,0-0.4,0.1-0.6c0-0.1,0.1-0.6,0.2-1.2L83.1,89.3z M73.2,97.9h1.1
	c0.7,0,1.3,0,1.7-0.1c0.4-0.1,0.6-0.2,1-0.5c0.4-0.4,0.7-0.9,1.1-1.5c0.2-0.6,0.5-1.4,0.5-2.2c0-0.7-0.1-1.2-0.4-1.6
	c-0.2-0.4-0.5-0.6-0.8-0.7c-0.2-0.1-0.7-0.1-1.3-0.1h-1.2L73.2,97.9z M70.8,99.6L73,89.3h2.8c0.7,0,1.2,0,1.5,0
	c0.4,0,0.8,0.1,1.1,0.2c0.4,0.1,0.6,0.4,0.8,0.5c0.2,0.2,0.5,0.5,0.7,0.9c0.2,0.4,0.4,0.7,0.5,1.1c0.1,0.5,0.1,0.9,0.1,1.5
	c0,1.1-0.2,2.1-0.6,3c-0.4,0.9-1,1.6-1.6,2.1c-0.5,0.4-1.1,0.7-1.9,0.9c-0.5,0.1-1.1,0.1-2.1,0.1L70.8,99.6L70.8,99.6z M62.4,95.6
	c0,0.7,0.2,1.4,0.6,1.7c0.5,0.5,1,0.7,1.7,0.7c0.6,0,1.1-0.2,1.6-0.6s1-1,1.3-1.7c0.4-0.7,0.5-1.5,0.5-2.2c0-0.9-0.2-1.5-0.6-2
	c-0.5-0.5-1-0.7-1.7-0.7c-1,0-1.8,0.5-2.5,1.5C62.8,93.4,62.4,94.3,62.4,95.6z M60.4,95.6c0-0.6,0.1-1.2,0.2-2
	c0.2-0.9,0.6-1.7,1.1-2.3c0.5-0.6,1.1-1.2,1.8-1.6c0.7-0.4,1.6-0.6,2.5-0.6c1.2,0,2.3,0.4,3,1.2c0.7,0.7,1.2,1.8,1.2,3.2
	c0,1.1-0.2,2.1-0.7,3.2c-0.5,1-1.2,1.8-2.1,2.3c-0.8,0.5-1.8,0.9-2.9,0.9c-1,0-1.7-0.2-2.4-0.6c-0.6-0.5-1.1-1-1.3-1.6
	C60.5,96.9,60.4,96.2,60.4,95.6z M52.9,93.9H54c1.1,0,1.8-0.1,2.2-0.2s0.6-0.4,0.8-0.6c0.2-0.2,0.4-0.6,0.4-0.9
	c0-0.4-0.1-0.6-0.5-0.9c-0.2-0.1-0.6-0.1-1.2-0.1h-2.3L52.9,93.9z M51.6,99.6h-2.1l2.2-10.3h4.5c0.7,0,1.3,0.1,1.8,0.2
	c0.5,0.1,0.7,0.5,1.1,0.9c0.2,0.5,0.4,1,0.4,1.6c0,0.9-0.2,1.6-0.7,2.2c-0.5,0.6-1.3,0.9-2.3,1.1c0.2,0.2,0.5,0.6,0.7,1
	c0.5,0.9,1,2,1.6,3.4h-2.2c-0.1-0.6-0.5-1.5-1.1-2.7c-0.2-0.6-0.6-1.1-1-1.4c-0.2-0.1-0.5-0.2-1.1-0.2h-0.8L51.6,99.6z M43.3,94h0.6
	c1.1,0,1.8-0.1,2.2-0.2s0.6-0.4,0.8-0.6c0.2-0.2,0.4-0.6,0.4-1c0-0.2,0-0.5-0.1-0.6c-0.1-0.1-0.2-0.2-0.5-0.4
	C46.5,91,46.1,91,45.4,91h-1.5L43.3,94z M42.2,99.6h-2.1l2.2-10.3h4.1c0.7,0,1.3,0.1,1.7,0.2c0.5,0.1,0.7,0.5,1,0.9
	c0.2,0.4,0.4,0.9,0.4,1.5c0,0.5-0.1,1-0.2,1.5c-0.2,0.5-0.5,0.9-0.7,1.2c-0.2,0.2-0.6,0.5-1,0.6c-0.4,0.1-0.7,0.2-1.3,0.4
	c-0.4,0-1,0.1-1.8,0.1h-1.3L42.2,99.6z M27.8,99.6L30,89.3h2.1l-1.8,8.6h5.2l-0.4,1.7H27.8z M23.8,99.6L26,89.3h2.1l-2.2,10.3
	C25.9,99.6,23.8,99.6,23.8,99.6z M15.6,95.6c0,0.7,0.2,1.4,0.6,1.7c0.5,0.5,1,0.7,1.7,0.7c0.6,0,1.1-0.2,1.6-0.6
	c0.5-0.4,1-1,1.3-1.7c0.4-0.7,0.5-1.5,0.5-2.2c0-0.9-0.2-1.5-0.6-2c-0.5-0.5-1-0.7-1.7-0.7c-1,0-1.8,0.5-2.5,1.5
	C15.9,93.4,15.6,94.3,15.6,95.6z M13.6,95.6c0-0.6,0.1-1.2,0.2-2c0.2-0.9,0.6-1.7,1.1-2.3c0.5-0.6,1.1-1.2,1.8-1.6
	c0.7-0.4,1.6-0.6,2.5-0.6c1.2,0,2.3,0.4,3,1.2c0.7,0.7,1.2,1.8,1.2,3.2c0,1.1-0.2,2.1-0.7,3.2c-0.5,1-1.2,1.8-2.1,2.3
	c-0.9,0.5-1.8,0.9-2.9,0.9c-1,0-1.7-0.2-2.4-0.6c-0.6-0.5-1.1-1-1.3-1.6C13.7,96.9,13.6,96.2,13.6,95.6z" />
</svg>