<svg width="40" height="24" viewBox="0 0 40 24" fill="none" xmlns="http://www.w3.org/2000/svg">
    <path
        d="M30.6319 23.373L38.2116 15.5967C39.1381 14.6413 39.6582 13.3482 39.6582 12.0003C39.6582 10.6523 39.1381 9.35926 38.2116 8.40379L30.6319 0.627526C30.4795 0.465574 30.2971 0.336395 30.0955 0.247528C29.8939 0.15866 29.6771 0.111883 29.4577 0.109927C29.2383 0.10797 29.0207 0.150873 28.8176 0.236132C28.6145 0.321391 28.43 0.447298 28.2749 0.606507C28.1197 0.765717 27.997 0.95504 27.914 1.16343C27.8309 1.37182 27.7891 1.5951 27.791 1.82025C27.7929 2.0454 27.8385 2.2679 27.9251 2.47478C28.0117 2.68165 28.1375 2.86876 28.2954 3.02518L35.3876 10.3046L1.65173 10.3046C1.21347 10.3046 0.793174 10.4833 0.483284 10.8013C0.173397 11.1193 -0.00069859 11.5505 -0.000698609 12.0003C-0.000698629 12.45 0.173397 12.8813 0.483283 13.1993C0.793174 13.5173 1.21347 13.6959 1.65173 13.6959L35.3892 13.6959L28.2954 20.9753C28.1375 21.1318 28.0117 21.3189 27.9251 21.5258C27.8385 21.7326 27.7929 21.9551 27.791 22.1803C27.7891 22.4054 27.8309 22.6287 27.914 22.8371C27.997 23.0455 28.1197 23.2348 28.2749 23.394C28.43 23.5532 28.6145 23.6791 28.8176 23.7644C29.0207 23.8497 29.2383 23.8926 29.4577 23.8906C29.6771 23.8886 29.8939 23.8419 30.0955 23.753C30.2971 23.6641 30.4795 23.535 30.6319 23.373Z" />
</svg>