<?xml version="1.0" standalone="no"?>
<!DOCTYPE svg PUBLIC "-//W3C//DTD SVG 1.1//EN" "http://www.w3.org/Graphics/SVG/1.1/DTD/svg11.dtd"><svg t="1680004781166"
    class="icon" viewBox="0 0 1024 1024" version="1.1" xmlns="http://www.w3.org/2000/svg" p-id="1803"
    xmlns:xlink="http://www.w3.org/1999/xlink" width="200" height="200">
    <path
        d="M928.256 879.232l-146.688-143.402667-3.413333-5.248a34.389333 34.389333 0 0 0-48.512 0c-124.629333 114.346667-316.714667 120.576-448.810667 14.506667-132.096-106.026667-163.242667-291.413333-72.789333-433.194667 90.453333-141.781333 274.432-195.968 429.952-126.634666 155.52 69.333333 234.24 240.725333 184.064 400.469333a33.28 33.28 0 0 0 7.765333 32.896 35.029333 35.029333 0 0 0 33.024 9.898667 34.261333 34.261333 0 0 0 25.301333-23.04c59.989333-189.525333-30.634667-393.514667-213.333333-480C492.117333 39.04 272.256 96.042667 157.44 259.626667 42.538667 423.253333 67.2 644.352 215.466667 779.946667c148.224 135.594667 375.466667 144.938667 534.826666 22.016l129.877334 126.933333a34.944 34.944 0 0 0 48.512 0 33.450667 33.450667 0 0 0 0-47.786667l-0.426667-1.834666z"
        p-id="1804"></path>
</svg>