<?xml version="1.0" standalone="no"?>
<!DOCTYPE svg PUBLIC "-//W3C//DTD SVG 1.1//EN" "http://www.w3.org/Graphics/SVG/1.1/DTD/svg11.dtd"><svg t="1680004796774"
    class="icon" viewBox="0 0 1024 1024" version="1.1" xmlns="http://www.w3.org/2000/svg" p-id="2005"
    xmlns:xlink="http://www.w3.org/1999/xlink" width="200" height="200">
    <path
        d="M746.581333 935.253333a28.586667 28.586667 0 0 1-15.018666-3.84l-219.221334-115.498666-193.024 103.936c-31.488 17.066667-70.912 5.376-87.978666-26.154667l-0.64-1.194667a69.973333 69.973333 0 0 1-6.741334-42.666666l37.546667-221.610667L104.533333 469.333333a68.266667 68.266667 0 0 1 0-95.018666c9.984-10.496 23.210667-17.28 37.546667-19.2l215.168-32.725334 95.701333-199.381333a64.64 64.64 0 0 1 117.504 0l96.128 200.106667 215.893334 33.024c17.450667 2.602667 33.109333 12.245333 43.349333 26.624 19.114667 27.477333 16.213333 64.597333-6.912 88.789333l-156.202667 157.013333 21.76 119.466667a33.365333 33.365333 0 0 1-26.666666 38.4 32.341333 32.341333 0 0 1-37.546667-26.197333l-22.186667-119.424a69.248 69.248 0 0 1 18.773334-60.074667l156.586666-158.122667-215.893333-33.493333a64.853333 64.853333 0 0 1-49.152-38.4l-96.085333-199.210667-97.28 202.368c-8.746667 20.394667-27.306667 34.858667-49.194667 38.4l-215.168 32.682667 155.434667 157.866667c15.488 15.573333 22.442667 37.632 18.773333 59.306666l-37.546667 221.568 192.981334-103.509333a62.805333 62.805333 0 0 1 61.568 0l218.88 115.456a33.621333 33.621333 0 0 1 16.554666 37.546667 32.853333 32.853333 0 0 1-31.573333 25.6l0.810667-3.584z"
        p-id="2006"></path>
</svg>