<?xml version="1.0" standalone="no"?>
<!DOCTYPE svg PUBLIC "-//W3C//DTD SVG 1.1//EN" "http://www.w3.org/Graphics/SVG/1.1/DTD/svg11.dtd"><svg t="1680003239725"
    class="icon" viewBox="0 0 1024 1024" version="1.1" xmlns="http://www.w3.org/2000/svg" p-id="1593"
    xmlns:xlink="http://www.w3.org/1999/xlink" width="200" height="200">
    <path
        d="M278.741333 744.618667c0 19.626667 15.744 35.584 35.157334 35.584a35.413333 35.413333 0 0 0 35.157333-35.584v-494.933334l111.957333 113.706667a34.816 34.816 0 0 0 49.706667 0.085333 35.84 35.84 0 0 0 0.085333-50.304L338.773333 138.453333a34.858667 34.858667 0 0 0-38.314666-7.765333 35.541333 35.541333 0 0 0-21.76 32.853333v581.12z m-136.917333-370.773334a34.816 34.816 0 0 1-24.789333-10.368 35.754667 35.754667 0 0 1-0.085334-50.261333l68.437334-69.546667a34.901333 34.901333 0 0 1 49.706666-0.128 35.925333 35.925333 0 0 1 0.128 50.346667L166.741333 363.392a34.645333 34.645333 0 0 1-24.917333 10.453333zM719.36 893.312a34.730667 34.730667 0 0 0 38.314667-7.808l147.2-149.589333a35.882667 35.882667 0 0 0-0.085334-50.304 34.944 34.944 0 0 0-49.706666 0.085333l-87.168 88.618667V279.296a35.328 35.328 0 0 0-35.157334-35.541333 35.413333 35.413333 0 0 0-35.157333 35.541333v581.12c0 14.421333 8.576 27.392 21.76 32.853333z m-115.114667-113.066667a34.816 34.816 0 0 0 49.706667 0.128 35.84 35.84 0 0 0 0.170667-50.261333l-68.437334-69.546667a34.901333 34.901333 0 0 0-49.749333-0.128 35.84 35.84 0 0 0-0.128 50.346667l68.437333 69.504z"
        p-id="1594"></path>
</svg>